<?xml version="1.0" standalone="no"?>
<!DOCTYPE svg PUBLIC "-//W3C//DTD SVG 20010904//EN"
 "http://www.w3.org/TR/2001/REC-SVG-20010904/DTD/svg10.dtd">
<svg version="1.0" xmlns="http://www.w3.org/2000/svg"
 width="252.000000pt" height="89.000000pt" viewBox="0 0 252.000000 89.000000"
 preserveAspectRatio="xMidYMid meet">
<metadata>
Created by potrace 1.10, written by Peter Selinger 2001-2011
</metadata>
<g transform="translate(0.000000,89.000000) scale(0.100000,-0.100000)"
fill="#000000" stroke="none">
<path d="M10 450 l0 -440 1255 0 c996 0 1255 3 1255 13 0 9 -69 12 -307 13
-557 1 -697 5 -705 17 -6 9 -8 9 -8 0 0 -10 -48 -13 -205 -13 -200 0 -231 5
-185 30 14 8 26 8 40 0 11 -6 20 -7 20 -3 0 4 4 1 9 -6 8 -12 12 -9 22 12 7
16 18 26 26 23 7 -3 13 -1 13 5 0 6 7 6 20 -1 11 -6 17 -16 14 -25 -4 -8 -1
-15 5 -15 6 0 11 7 11 15 0 19 14 19 30 0 14 -17 30 -20 30 -4 0 5 -3 8 -7 6
-11 -5 -43 30 -35 38 4 4 2 5 -3 3 -17 -5 -96 65 -90 79 2 8 0 11 -5 8 -14 -9
-12 2 6 30 17 25 40 24 61 -4 6 -9 15 -12 20 -8 10 11 -34 47 -58 47 -41 0
-69 -92 -31 -104 10 -4 32 -21 48 -38 16 -18 22 -27 13 -21 -8 7 -25 10 -37 6
-13 -3 -22 -1 -22 6 0 6 7 8 17 4 11 -4 14 -3 9 6 -5 7 -23 11 -45 9 -32 -2
-36 0 -34 19 3 24 -17 36 -38 21 -11 -8 -11 -9 3 -5 21 7 31 -3 18 -18 -8 -9
-6 -14 6 -19 12 -5 14 -9 5 -20 -9 -10 -8 -15 4 -20 8 -3 15 -10 15 -15 0 -5
-12 -5 -30 2 -26 10 -28 13 -15 28 14 14 13 19 -11 43 -15 14 -24 29 -21 33 4
3 -4 21 -18 39 -30 39 -31 44 -7 44 11 0 27 9 37 20 10 11 24 20 30 20 7 0 12
7 11 16 0 9 4 19 10 21 9 3 11 -30 5 -79 -1 -4 -7 -5 -15 -2 -19 7 -19 -51 0
-67 16 -13 27 4 19 32 -4 11 -1 27 7 36 8 10 13 42 13 80 0 35 5 67 11 71 17
11 26 49 14 57 -7 4 -14 -2 -17 -14 -3 -11 -10 -18 -16 -14 -6 4 -7 1 -3 -6 5
-7 0 -21 -11 -33 -10 -12 -12 -18 -5 -14 18 11 15 -9 -6 -27 -11 -10 -22 -13
-31 -7 -20 12 -43 0 -36 -18 4 -12 3 -12 -9 -3 -11 9 -16 9 -22 0 -4 -7 -3 -9
4 -5 5 3 12 1 14 -6 6 -16 39 -2 34 14 -1 7 -1 10 1 5 3 -4 9 -5 14 -1 5 3 9
1 9 -5 0 -15 -50 -51 -71 -51 -28 0 -36 -41 -11 -61 12 -9 24 -28 28 -43 3
-14 14 -30 23 -35 8 -5 12 -13 8 -17 -4 -4 -12 -3 -19 4 -8 8 -16 5 -29 -13
-11 -13 -19 -27 -19 -33 0 -5 -17 -9 -37 -9 -56 -1 -63 -2 -63 -12 0 -10 50
-9 66 1 6 4 14 4 18 1 14 -14 38 -12 32 3 -3 8 2 24 12 35 19 19 19 19 29 -4
8 -18 7 -27 -7 -45 -17 -20 -27 -22 -129 -22 -90 0 -111 3 -111 14 0 19 105
128 114 119 4 -4 4 0 1 8 -3 9 1 21 9 28 11 10 18 8 35 -11 12 -12 19 -28 16
-36 -2 -7 0 -10 5 -7 6 3 10 3 10 -2 -1 -14 -27 -43 -38 -43 -6 0 -14 -5 -17
-10 -13 -20 16 -9 47 19 l32 29 -27 41 c-15 22 -32 41 -38 41 -6 0 -8 9 -3 22
5 16 -1 12 -25 -14 -17 -20 -31 -40 -31 -45 0 -6 -23 -31 -50 -56 -34 -32 -50
-54 -50 -71 l0 -25 -202 2 c-144 1 -202 5 -205 14 -5 14 27 33 65 39 l27 4
-25 -20 c-14 -11 -20 -20 -15 -20 13 0 83 72 114 117 21 31 61 46 61 23 0 -10
9 -5 48 30 33 29 71 50 91 50 11 0 24 8 30 17 8 15 11 15 28 3 15 -12 16 -12
6 0 -21 23 -15 38 12 32 14 -2 25 -9 25 -16 0 -6 4 -4 10 4 5 8 12 11 16 8 8
-9 65 20 81 41 6 9 16 17 22 17 32 4 34 6 14 14 -16 7 -21 14 -16 27 12 34 46
72 57 66 6 -4 5 0 -2 9 -7 8 -10 23 -6 32 3 9 2 16 -4 16 -12 0 -22 -23 -23
-53 0 -21 -1 -21 -8 -3 -5 14 -10 16 -15 8 -4 -7 -4 -16 -1 -22 3 -5 2 -10 -4
-10 -5 0 -12 -14 -16 -30 -4 -17 -13 -30 -21 -30 -9 0 -12 -5 -9 -11 4 -6 -2
-13 -14 -16 -12 -3 -21 -11 -21 -19 0 -9 -12 -12 -43 -9 -44 3 -72 -6 -72 -25
0 -8 -7 -12 -17 -9 -23 7 -37 5 -35 -4 1 -7 -8 -11 -22 -9 -21 2 -22 0 -10
-14 12 -15 11 -16 -9 -10 -18 6 -21 4 -15 -11 6 -16 5 -16 -10 -4 -10 8 -17 9
-17 3 0 -13 -35 -27 -77 -31 -7 0 -13 -7 -13 -13 0 -7 -8 -22 -17 -33 -13 -16
-15 -17 -10 -2 4 9 3 17 -2 17 -5 0 -11 -9 -14 -20 -3 -11 -13 -20 -22 -20 -9
0 -13 -4 -10 -10 3 -5 1 -10 -4 -10 -6 0 -11 5 -11 10 0 15 -16 12 -34 -6 -9
-8 -21 -12 -27 -8 -8 4 -9 3 -5 -4 4 -7 -2 -13 -16 -16 -56 -12 -96 -18 -132
-20 -21 -2 -42 -9 -46 -16 -4 -7 -12 -10 -17 -7 -4 3 -14 -6 -20 -19 -6 -14
-9 -24 -5 -22 59 32 110 49 154 53 30 2 73 11 97 20 24 8 50 15 59 15 8 0 24
7 34 17 10 9 18 11 18 6 0 -18 -26 -33 -85 -48 -73 -20 -77 -22 -65 -46 9 -17
7 -19 -16 -19 -22 0 -25 2 -14 15 7 8 8 15 2 15 -5 0 -15 -6 -21 -14 -7 -8
-33 -14 -69 -15 -31 0 -79 -4 -106 -7 -36 -5 -47 -4 -42 5 4 6 1 11 -8 11 -8
0 -18 -4 -21 -10 -9 -14 -71 -12 -83 3 -6 7 -9 76 -7 181 2 93 0 193 -4 222
-4 29 -4 51 1 48 9 -6 11 246 2 335 -16 151 -24 28 -24 -379z m1192 -332 c10
-25 -2 -39 -23 -27 -16 8 -18 13 -8 25 14 17 25 18 31 2z"/>
<path d="M263 883 c11 -3 16 -11 13 -19 -3 -8 1 -17 9 -21 11 -3 13 -12 9 -27
-6 -21 -6 -21 11 -1 16 20 16 20 5 -2 -6 -13 -18 -23 -26 -23 -8 0 -13 3 -11
8 3 4 -6 8 -20 9 -19 1 -22 -1 -12 -8 8 -5 9 -9 3 -9 -17 0 -35 25 -26 36 4 5
-3 1 -15 -10 -12 -10 -27 -15 -34 -10 -8 5 -10 3 -4 -6 6 -10 4 -12 -8 -7 -9
3 -18 0 -21 -9 -3 -9 -2 -12 5 -9 5 4 15 2 22 -4 8 -6 27 -7 51 -1 43 10 110
4 139 -12 13 -6 23 -6 29 0 11 11 -59 95 -72 87 -5 -3 -12 0 -16 6 -4 8 -3 9
4 5 7 -4 12 -3 12 1 0 16 -24 33 -44 32 -18 -1 -19 -2 -3 -6z"/>
<path d="M329 861 c12 -16 34 -41 51 -54 16 -14 27 -27 24 -29 -2 -3 19 -3 48
0 32 3 67 14 88 28 19 13 38 24 42 24 5 0 29 13 55 29 l48 30 -42 -2 c-28 -1
-39 -5 -33 -12 6 -7 0 -11 -18 -10 -15 0 -26 -5 -25 -10 3 -19 -35 -11 -48 10
-10 17 -10 18 2 8 10 -8 19 -9 29 -1 12 8 12 9 -2 4 -10 -3 -20 -1 -23 4 -4 6
-18 10 -33 10 l-27 0 22 -18 c24 -19 42 -72 24 -72 -6 0 -11 9 -11 20 0 22
-10 26 -26 10 -8 -8 -15 -6 -24 5 -7 8 -20 15 -30 15 -10 0 -23 6 -29 14 -10
11 -8 15 6 19 10 3 -6 5 -35 6 l-53 1 20 -29z"/>
<path d="M697 860 c-38 -35 -100 -77 -136 -93 -35 -14 -57 -16 -97 -7 -19 5
-32 4 -28 -1 3 -5 0 -9 -6 -9 -6 0 -16 -4 -23 -10 -70 -56 -68 -54 -76 -119
-7 -59 -11 -67 -52 -103 -56 -49 -85 -64 -129 -66 -37 -2 -69 12 -57 25 4 4
17 2 27 -5 23 -14 33 -15 26 -3 -4 5 3 7 15 4 21 -6 69 14 69 28 0 5 -11 4
-24 -1 -15 -5 -27 -5 -35 3 -8 8 -11 8 -11 -2 0 -7 -5 -9 -11 -5 -16 10 12 25
34 18 20 -6 23 9 3 25 -10 9 -15 8 -20 -4 -3 -8 -11 -15 -18 -14 -10 0 -10 2
0 6 6 2 10 8 8 12 -3 4 -1 13 4 21 7 12 14 10 38 -13 36 -35 54 -34 86 4 20
24 26 41 26 79 0 37 6 55 25 78 21 25 23 31 9 36 -30 11 -51 6 -74 -19 -14
-15 -26 -21 -30 -15 -8 12 -40 3 -40 -12 0 -5 5 -6 12 -2 8 5 9 2 4 -11 -5
-15 -4 -16 8 -6 12 10 17 9 28 -8 7 -12 17 -21 22 -21 5 0 2 8 -7 18 -16 17
-15 20 10 43 l26 24 -16 -24 c-12 -18 -13 -29 -6 -43 5 -10 7 -18 5 -18 -3 0
-1 -12 4 -26 6 -15 6 -23 1 -19 -5 3 -12 1 -16 -5 -3 -5 -1 -10 5 -10 6 0 9
-4 6 -9 -3 -5 -21 -5 -41 -1 -19 4 -35 4 -35 0 0 -5 -9 -6 -19 -3 -36 9 -58
-12 -55 -55 l2 -39 -39 2 c-35 2 -38 0 -27 -14 21 -26 31 -31 70 -31 20 0 39
-4 43 -10 3 -5 -7 -7 -26 -5 -17 2 -28 1 -25 -2 4 -4 24 -8 46 -9 30 -2 40 2
40 13 0 8 -5 11 -10 8 -6 -3 -10 -2 -10 3 0 6 7 13 16 16 22 9 26 8 18 -6 -4
-7 -3 -8 4 -4 7 4 12 13 12 21 0 7 13 18 30 24 16 5 30 12 30 15 0 3 -8 3 -17
-1 -10 -3 -15 -3 -11 1 3 4 13 9 22 10 9 1 16 4 15 7 -1 2 4 15 11 29 8 14 13
34 11 44 -2 15 2 18 18 13 12 -3 19 -1 15 4 -3 5 -1 9 5 9 5 0 8 -12 7 -27 -2
-16 -4 -34 -5 -42 -1 -11 -5 -10 -16 5 -15 19 -15 19 -9 -1 4 -14 3 -16 -4 -7
-8 11 -10 11 -15 0 -4 -12 10 -14 76 -13 l80 2 -29 -25 c-20 -16 -22 -20 -7
-13 28 14 36 14 27 0 -4 -7 -1 -10 7 -7 8 3 16 20 19 39 3 22 13 37 28 45 19
10 21 13 8 23 -8 7 -19 10 -24 7 -6 -3 -15 0 -21 8 -9 10 -8 15 4 20 9 3 13 2
10 -4 -11 -18 12 -10 30 10 18 19 17 20 -7 20 -14 0 -31 -7 -38 -15 -9 -11
-16 -12 -31 -2 -10 6 -19 18 -19 25 0 19 28 26 47 11 14 -12 16 -12 8 0 -6 11
-4 13 11 7 37 -15 50 -14 74 8 30 26 36 46 15 46 -8 0 -15 5 -15 10 0 7 6 7
20 0 15 -8 20 -8 20 1 0 7 3 9 6 6 4 -4 1 -13 -6 -22 -7 -8 -8 -15 -2 -15 16
0 34 28 26 41 -4 7 -3 9 3 6 5 -3 15 11 22 31 7 20 25 49 39 65 34 36 20 35
-21 -3z m-107 -141 c0 -5 -3 -8 -7 -8 -5 1 -10 1 -13 -1 -3 -1 -16 -3 -30 -6
-21 -3 -22 -2 -7 7 10 6 14 15 10 22 -4 7 2 5 12 -3 17 -14 18 -13 12 4 -6 16
-5 17 8 6 8 -7 15 -16 15 -21z m-127 1 c3 -11 1 -18 -3 -15 -5 3 -16 -2 -24
-11 -9 -8 -22 -14 -29 -11 -7 2 0 10 16 17 15 7 27 19 27 27 0 19 7 16 13 -7z
m-70 -68 c-6 -25 -23 -20 -18 6 2 9 4 24 5 32 0 13 2 13 10 -1 5 -8 6 -25 3
-37z m69 -16 c14 -10 15 -15 5 -25 -10 -11 -8 -12 11 -6 12 3 22 3 22 -2 -1
-13 -44 -41 -75 -49 -23 -6 -26 -4 -23 12 3 14 12 19 33 17 17 0 24 1 17 4 -6
2 -10 9 -6 14 3 5 -3 9 -14 9 -24 0 -32 8 -25 26 6 17 32 18 55 0z m-199 -76
c16 0 18 -3 10 -11 -14 -14 -63 -4 -63 12 0 6 7 8 16 5 9 -3 25 -6 37 -6z"/>
<path d="M770 870 c-32 -13 -49 -27 -63 -54 l-20 -37 31 -37 c17 -20 35 -36
41 -35 6 2 8 -3 5 -11 -3 -8 -1 -17 5 -21 16 -9 13 -68 -3 -91 -13 -16 -17
-17 -28 -5 -8 9 -8 11 -1 7 7 -4 17 3 23 15 8 15 9 19 1 15 -15 -10 -14 7 1
22 9 9 9 12 0 12 -7 0 -12 -5 -12 -11 0 -5 -5 -7 -10 -4 -6 4 -17 1 -25 -5
-11 -9 -14 -8 -12 9 0 11 4 18 8 15 12 -7 39 7 39 21 0 7 -8 19 -17 26 -15 12
-16 12 -10 -4 4 -10 3 -16 -2 -13 -5 3 -14 0 -20 -8 -6 -7 -22 -11 -36 -8 -27
5 -32 16 -13 28 6 4 8 3 5 -3 -4 -6 2 -13 14 -16 28 -7 45 36 25 64 -13 19
-14 19 -20 -6 -4 -14 -13 -25 -21 -25 -9 0 -20 -12 -25 -26 -12 -31 -1 -49 35
-58 15 -4 25 -14 25 -25 0 -25 -8 -30 -38 -22 -21 6 -27 14 -27 37 0 22 -4 29
-18 28 -14 -2 -15 1 -6 12 6 7 9 19 7 25 -2 6 -16 -4 -30 -23 -25 -33 -26 -37
-12 -63 13 -25 13 -30 -1 -45 -8 -9 -15 -25 -15 -34 0 -10 -9 -20 -20 -23 -22
-6 -26 -18 -10 -28 10 -6 80 58 80 72 0 4 -7 -1 -15 -11 -8 -11 -15 -15 -15
-9 0 7 7 19 16 27 9 9 12 21 8 28 -5 7 4 5 19 -4 34 -23 58 -23 84 2 18 17 23
17 33 5 16 -20 46 -19 54 1 3 9 6 31 6 50 0 27 3 32 17 27 13 -5 15 -2 10 11
-4 10 -7 25 -8 34 -1 10 -4 7 -9 -8 l-7 -25 -13 30 c-6 17 -12 40 -12 53 0 12
-4 25 -9 28 -5 3 -9 10 -9 15 0 6 4 8 9 4 6 -3 8 5 5 19 -2 14 0 28 6 31 6 3
10 -4 10 -17 1 -20 2 -21 11 -5 5 9 7 22 3 28 -4 7 0 9 13 5 14 -5 19 -1 19
14 0 23 2 23 -56 0z m-20 -65 c-10 -12 -10 -19 -2 -27 17 -17 15 -33 -3 -18
-21 17 -19 1 3 -24 17 -21 17 -21 -5 -2 -25 21 -26 54 -3 73 21 17 25 16 10
-2z"/>
<path d="M991 883 c8 -2 23 -18 33 -35 11 -17 14 -28 7 -24 -6 4 -11 2 -11 -3
0 -6 6 -11 13 -11 8 0 8 -3 -2 -9 -15 -10 -16 -14 -27 -97 -4 -37 -3 -54 6
-59 9 -5 11 -4 6 3 -4 7 -3 12 2 12 6 0 12 -7 16 -15 3 -8 1 -15 -5 -15 -15 0
-1 -18 24 -30 20 -10 20 -10 5 3 -29 23 -21 30 12 10 17 -9 30 -21 30 -26 0
-4 -4 -6 -9 -3 -21 14 -16 -22 7 -49 14 -17 23 -22 19 -12 -3 9 -3 17 2 17 5
0 11 9 14 19 5 19 21 22 43 8 11 -6 91 -8 156 -4 19 2 24 5 16 14 -7 9 -16 10
-28 3 -10 -5 -42 -8 -71 -5 -30 2 -60 4 -67 4 -7 1 -10 6 -7 11 5 8 11 8 20 0
9 -8 15 -8 20 0 3 5 -1 10 -9 10 -9 0 -16 5 -16 11 0 6 9 9 20 6 11 -3 20 -1
20 4 0 5 -9 9 -19 9 -11 0 -28 3 -38 7 -15 6 -16 4 -6 -8 18 -22 1 -43 -28
-34 -67 22 -132 95 -122 137 4 13 10 26 15 29 12 8 51 112 39 104 -6 -3 -24 1
-40 10 -17 8 -36 14 -43 14 -8 -1 -7 -3 3 -6z"/>
<path d="M1136 876 c14 -11 16 -18 8 -26 -9 -9 -16 -6 -28 11 -8 13 -19 19
-23 15 -5 -5 -2 -11 5 -13 6 -3 10 -8 7 -12 -2 -5 5 -25 15 -47 14 -27 20 -33
21 -19 1 11 1 24 0 29 -1 5 1 16 4 25 6 14 8 14 21 -3 8 -11 14 -15 14 -9 0
15 -40 63 -53 63 -6 0 -2 -6 9 -14z"/>
<path d="M1238 877 c7 -8 7 -18 2 -27 -7 -10 -10 -11 -10 -2 0 6 -5 12 -11 12
-6 0 -9 -7 -5 -15 3 -9 -3 -19 -15 -25 -11 -6 -17 -15 -14 -20 5 -8 -40 -50
-54 -50 -3 0 -13 5 -21 10 -13 9 -13 11 0 20 11 8 7 9 -15 4 -46 -10 -47 -13
-24 -46 20 -27 24 -29 34 -15 7 9 15 14 18 10 4 -3 -1 -11 -10 -18 -15 -11
-14 -14 12 -31 33 -22 97 -46 90 -34 -8 12 6 41 16 34 5 -3 7 -9 5 -13 -3 -4
1 -8 8 -8 8 0 12 6 9 14 -3 7 -9 13 -14 13 -12 0 -29 42 -22 53 3 4 15 -2 27
-15 25 -25 40 -78 23 -78 -6 0 -8 -2 -5 -5 8 -8 58 6 58 16 0 5 -6 6 -13 3
-10 -3 -12 5 -9 33 5 40 17 63 34 63 6 0 4 -7 -3 -17 -12 -14 -12 -15 1 -11 8
3 23 -1 33 -10 25 -22 30 -9 7 16 -12 12 -17 22 -13 22 4 0 0 5 -9 11 -13 7
-24 5 -43 -7 -24 -16 -26 -16 -45 6 -11 13 -20 26 -20 31 0 4 -10 5 -22 3 -13
-2 -16 -1 -8 2 8 4 27 18 42 31 14 14 32 22 38 18 8 -5 6 -11 -7 -21 -17 -13
-17 -13 4 -14 27 0 35 21 14 37 -14 11 -12 12 15 13 46 0 73 -33 34 -43 -11
-3 -20 -10 -20 -15 0 -17 39 -1 45 19 13 39 -2 56 -45 53 -22 -1 -49 -5 -60
-9 -11 -4 -20 -2 -20 4 0 6 -5 11 -11 11 -8 0 -8 -4 -1 -13z m-17 -110 c-18
-20 -20 -29 -12 -49 9 -23 7 -25 -10 -21 -11 3 -18 12 -17 21 2 8 -3 17 -9 19
-7 3 -13 0 -13 -6 0 -6 -4 -11 -10 -11 -21 0 -9 30 15 36 14 3 25 10 25 14 0
8 19 16 44 19 5 0 0 -10 -13 -22z"/>
<path d="M1440 870 c-13 -24 -13 -33 1 -24 8 5 8 1 0 -14 -11 -21 -16 -100 -5
-89 3 3 16 -6 28 -20 19 -22 25 -24 44 -14 16 8 28 9 41 1 11 -5 29 -10 40
-10 12 0 21 -6 21 -14 0 -18 45 -29 68 -17 44 24 71 88 53 130 -3 10 -8 1 -11
-24 -3 -22 -10 -39 -16 -38 -6 1 -10 -8 -10 -20 1 -15 -5 -21 -19 -21 -37 1
-75 16 -68 27 4 6 0 8 -10 4 -9 -3 -17 -1 -20 6 -2 7 -22 11 -52 10 -36 -1
-52 3 -62 15 -15 21 -17 82 -2 82 8 0 8 4 0 14 -7 9 -8 17 -2 20 5 3 11 1 13
-6 3 -8 6 -7 10 3 9 22 -30 22 -42 -1z"/>
<path d="M1737 883 c-6 -9 0 -83 6 -89 2 -2 12 6 23 17 19 22 19 22 -6 15 -19
-6 -21 -5 -10 3 12 9 13 11 1 11 -8 0 -12 3 -9 6 4 3 20 -2 38 -11 26 -14 31
-21 28 -47 -2 -17 1 -29 7 -27 6 2 9 7 8 10 -1 4 5 6 14 5 9 0 18 6 20 14 4
13 3 13 -6 0 -13 -19 -14 0 -1 20 6 10 10 11 10 3 0 -7 5 -13 11 -13 6 0 9 6
6 13 -3 8 1 14 8 14 11 0 10 -7 -3 -31 -9 -17 -15 -35 -14 -39 1 -5 -2 -6 -7
-3 -10 7 -85 -34 -77 -41 9 -9 67 16 98 42 16 14 25 25 19 25 -6 0 -11 4 -11
10 0 5 8 7 18 4 12 -4 13 -3 4 3 -7 6 -12 16 -10 24 2 10 -10 15 -47 17 -30 2
-58 10 -70 21 -28 26 -43 33 -48 24z"/>
<path d="M1795 874 c25 -18 69 -18 85 1 10 12 4 14 -46 14 -52 -1 -56 -3 -39
-15z"/>
<path d="M1934 865 c-19 -21 -30 -60 -13 -49 4 2 10 -2 13 -8 4 -7 4 -3 2 9
-4 20 -2 21 17 11 l22 -11 -20 23 c-16 19 -17 22 -4 17 13 -4 16 -1 12 14 -3
10 -6 19 -7 18 0 -1 -10 -11 -22 -24z"/>
<path d="M2039 840 c-13 -27 -28 -50 -32 -50 -5 0 -5 -4 -2 -10 3 -6 -1 -7
-10 -4 -11 5 -13 10 -5 19 7 8 5 12 -5 12 -8 0 -12 -4 -9 -9 3 -4 0 -8 -7 -8
-8 0 -8 -4 1 -15 10 -13 9 -15 -9 -15 -12 0 -19 -4 -16 -10 3 -5 2 -10 -3 -10
-16 0 -22 13 -11 27 6 7 7 13 3 13 -9 0 -38 -39 -39 -52 0 -3 -4 -10 -9 -15
-5 -5 -6 -3 -2 5 8 14 -5 16 -19 3 -6 -5 -33 -16 -60 -25 -57 -18 -95 -42 -95
-58 0 -6 11 -8 28 -4 15 4 41 9 57 12 29 5 95 33 105 45 3 3 30 17 61 31 46
21 63 36 97 88 47 70 50 80 24 80 -12 0 -27 -18 -43 -50z"/>
<path d="M2108 820 c-19 -38 -31 -70 -27 -70 4 0 11 5 14 10 3 6 19 10 35 10
48 0 142 28 156 47 7 10 18 30 23 46 9 23 7 27 -10 27 -10 0 -19 -6 -19 -13 0
-7 -16 -21 -35 -31 -19 -10 -32 -22 -30 -27 7 -11 -13 -21 -26 -13 -8 4 -7 9
2 15 7 4 10 11 7 15 -11 10 -35 -19 -30 -36 5 -13 3 -13 -11 -1 -10 8 -14 18
-9 25 11 15 14 66 3 66 -4 0 -23 -31 -43 -70z"/>
<path d="M2180 882 c0 -5 8 -16 19 -26 17 -16 19 -15 35 9 16 24 16 25 -5 25
-15 0 -19 -5 -15 -15 7 -19 1 -19 -18 1 -9 8 -16 11 -16 6z"/>
<path d="M2337 861 c-6 -14 -18 -34 -26 -45 -15 -18 -15 -18 9 -11 45 13 120
58 120 72 0 20 -18 16 -30 -7 -6 -11 -15 -20 -21 -20 -6 0 -3 7 6 16 20 21 11
31 -12 13 -9 -8 -14 -9 -10 -3 3 6 -1 11 -9 11 -9 0 -21 -12 -27 -26z"/>
<path d="M2470 860 c-8 -5 -37 -22 -64 -38 l-48 -29 66 -13 c36 -7 73 -9 82
-6 19 7 14 41 -6 41 -8 0 -16 9 -18 20 -3 16 -1 17 7 5 10 -13 11 -13 11 0 0
13 1 13 10 0 8 -12 10 -11 10 8 0 23 -22 29 -50 12z"/>
<path d="M1409 830 c0 -14 -3 -19 -6 -12 -5 13 -23 7 -23 -9 0 -6 4 -8 8 -5 5
3 9 -11 10 -31 1 -19 4 -43 7 -52 6 -21 -34 -49 -45 -31 -5 9 -13 9 -25 3 -12
-7 -14 -13 -6 -17 6 -4 11 -16 11 -27 0 -11 5 -17 10 -14 6 4 8 15 5 25 -5 14
-2 17 14 13 11 -3 28 -14 38 -26 17 -20 17 -20 -1 -13 -15 5 -17 4 -8 -7 7 -8
9 -17 5 -20 -3 -4 -1 -7 5 -7 7 0 12 7 12 16 0 12 7 15 26 11 15 -3 41 -1 58
5 54 16 66 17 89 8 21 -8 21 -9 2 -10 -11 -1 -31 -1 -44 0 -13 1 -21 -3 -17
-8 3 -6 22 -9 42 -8 20 1 38 -2 40 -6 3 -5 10 -8 15 -8 6 0 7 5 3 12 -4 7 -3
8 4 4 6 -4 8 -14 5 -23 -4 -11 -2 -14 5 -9 7 4 13 -6 17 -27 7 -34 -8 -80 -40
-123 -15 -21 -15 -22 11 -21 15 0 21 3 14 7 -8 5 -4 15 16 35 22 22 24 29 13
36 -8 5 -9 9 -2 9 7 0 9 9 5 23 -5 20 -4 21 11 8 11 -9 17 -10 17 -2 0 6 5 11
11 11 5 0 7 -5 3 -11 -3 -6 6 -3 20 6 22 15 31 16 52 6 14 -6 40 -11 59 -11
23 0 34 -4 33 -12 -2 -8 6 -12 17 -11 11 1 24 -4 28 -10 6 -8 7 -5 3 6 -5 16
-2 17 32 11 20 -4 47 -7 58 -8 13 -1 20 -6 17 -13 -5 -14 12 -18 20 -5 2 4 2
0 -1 -8 -12 -42 -9 -66 9 -67 10 -1 21 2 24 8 3 5 0 6 -8 3 -8 -3 -17 -1 -21
4 -3 5 5 8 16 7 12 -1 24 -7 26 -14 3 -9 8 -9 20 1 12 10 14 10 8 1 -5 -9 -2
-11 10 -6 12 4 15 3 10 -5 -5 -8 1 -12 16 -12 32 0 44 -11 44 -39 0 -14 6 -26
14 -29 11 -2 12 -1 3 5 -7 5 -9 14 -4 22 7 10 10 9 16 -8 4 -12 12 -20 18 -18
7 2 19 1 28 -4 9 -4 26 -5 38 -2 17 4 19 8 10 19 -8 10 -16 11 -23 5 -13 -11
-86 49 -86 70 0 8 -5 7 -17 -2 -11 -10 -14 -10 -9 -1 5 8 -1 12 -20 12 -15 0
-42 9 -60 21 -30 18 -35 19 -40 5 -3 -9 -11 -13 -16 -10 -7 4 -5 10 5 15 44
25 -24 79 -99 79 -20 0 -50 6 -67 14 -18 8 -52 17 -77 19 -25 3 -56 8 -70 12
-19 5 -22 4 -10 -4 12 -9 11 -11 -10 -12 -14 -1 -35 -3 -47 -4 -12 -1 -20 1
-18 6 9 14 -16 56 -45 72 -33 20 -68 21 -122 5 -31 -9 -44 -9 -59 0 -11 7 -24
10 -28 7 -5 -2 -15 2 -22 11 -10 13 -10 17 2 24 10 7 16 4 20 -7 3 -11 8 -13
12 -6 8 13 -2 43 -14 43 -13 0 -11 84 3 98 9 9 9 15 0 24 -9 9 -12 7 -13 -12z"/>
<path d="M1766 795 c-20 -31 -21 -41 -1 -25 8 7 15 8 15 2 0 -5 -7 -15 -15
-22 -20 -16 -46 -70 -34 -70 15 0 48 38 53 62 17 82 12 98 -18 53z"/>
<path d="M2252 765 c-18 -8 -56 -17 -83 -21 -28 -4 -57 -13 -64 -21 -8 -7 -18
-13 -22 -12 -12 3 -75 -23 -69 -28 2 -3 20 1 39 8 28 10 43 9 88 -4 30 -9 79
-19 109 -22 99 -10 120 -16 121 -34 0 -10 2 -11 6 -3 7 17 62 15 69 -3 4 -8
10 -15 16 -15 5 0 7 4 4 9 -4 5 7 12 24 16 45 10 37 31 -12 32 -135 3 -151 6
-155 23 -4 14 -12 17 -43 13 -21 -3 -46 -1 -56 5 -17 10 -16 11 9 17 15 4 25
10 23 14 -2 3 18 7 45 9 28 1 49 -2 49 -8 0 -5 -6 -10 -12 -10 -9 0 -8 -4 2
-10 8 -5 20 -10 25 -10 6 0 3 5 -5 10 -13 9 -13 10 0 11 8 0 26 2 38 3 13 2
30 -4 38 -11 8 -8 14 -10 14 -4 0 6 16 11 35 11 63 0 37 16 -47 29 -139 21
-152 22 -186 6z"/>
<path d="M142 758 c-7 -7 -12 -21 -12 -32 0 -14 -3 -17 -8 -9 -11 18 -65 9
-68 -10 -1 -9 1 -15 4 -14 4 1 7 -2 7 -8 0 -5 -2 -9 -5 -8 -4 1 -6 -14 -6 -33
0 -19 4 -34 8 -34 4 0 8 8 8 19 0 25 38 71 59 71 20 0 46 49 33 62 -4 4 -13 3
-20 -4z"/>
<path d="M212 753 c-15 -3 -29 -17 -39 -41 -8 -20 -19 -45 -24 -54 -12 -23
-11 -38 1 -38 6 0 10 7 10 15 0 13 11 19 32 16 3 0 5 12 3 27 -3 30 21 59 46
54 9 -1 22 4 29 13 8 9 8 15 2 15 -6 0 -14 -4 -17 -10 -3 -5 -11 -10 -16 -10
-6 0 -7 5 -4 10 3 6 5 9 3 9 -2 -1 -13 -4 -26 -6z"/>
<path d="M1045 723 c0 -22 4 -29 14 -25 10 4 12 -1 7 -19 -3 -13 -3 -18 0 -11
5 10 9 10 20 1 8 -6 14 -8 14 -5 0 4 7 0 16 -8 8 -9 21 -16 27 -15 7 0 1 8
-13 17 -31 21 -62 52 -75 77 -9 15 -11 14 -10 -12z"/>
<path d="M106 673 c-8 -8 -36 -71 -36 -81 0 -3 9 4 21 16 11 12 17 26 14 31
-3 5 0 13 6 17 8 4 9 3 5 -4 -4 -7 -3 -12 2 -12 8 0 22 22 22 36 0 7 -26 4
-34 -3z"/>
<path d="M1310 635 c0 -13 46 -53 64 -57 33 -6 31 -28 -3 -28 -18 0 -31 -5
-31 -12 0 -7 -5 -20 -10 -28 -9 -13 -11 -13 -21 0 -9 13 -10 12 -5 -2 9 -28
-13 -31 -24 -4 -5 14 -12 26 -15 26 -2 0 0 -11 5 -24 5 -13 6 -27 2 -32 -4 -4
-2 -4 4 -1 7 4 10 -13 10 -49 -1 -29 -3 -54 -6 -54 -11 0 3 -75 18 -98 9 -13
12 -33 9 -50 -5 -26 -2 -31 38 -50 47 -23 81 -64 69 -83 -4 -8 -3 -9 4 -5 18
11 15 22 -23 72 -19 25 -35 40 -35 32 0 -11 -2 -11 -9 0 -4 8 -11 13 -15 13
-20 -3 -24 1 -19 19 12 44 102 7 103 -42 0 -33 80 -131 80 -100 0 6 -7 12 -15
16 -8 3 -15 10 -15 16 0 6 18 1 40 -10 21 -11 50 -20 63 -20 12 0 28 -5 34
-11 13 -13 33 -4 33 14 0 8 -3 8 -9 -2 -5 -8 -11 -9 -15 -3 -3 5 -23 12 -43
16 -73 13 -162 71 -141 91 10 11 49 -15 42 -27 -4 -7 -3 -8 4 -4 6 4 26 -1 44
-11 18 -9 35 -18 38 -18 60 -10 90 -18 115 -29 59 -27 102 -36 168 -36 36 0
69 -4 72 -10 3 -5 13 -10 22 -10 12 0 9 7 -11 25 -27 25 -42 33 -31 16 3 -6
-6 -7 -23 -2 -31 9 -74 7 -93 -5 -7 -4 -9 -3 -5 4 9 14 -10 24 -53 28 -20 2
-40 9 -46 17 -5 7 -19 11 -30 9 -17 -3 -18 -1 -5 8 12 10 11 11 -7 7 -17 -4
-23 0 -23 11 -1 15 -2 15 -14 0 -15 -21 -28 -24 -20 -5 3 8 -5 13 -22 15 -14
1 -38 8 -52 16 -15 8 -35 17 -45 20 -10 3 -16 9 -14 13 6 10 -19 34 -27 26 -3
-4 -6 -1 -6 5 0 10 -64 29 -81 24 -4 -1 -5 8 -2 18 4 15 1 19 -9 15 -16 -6
-17 15 -3 49 5 11 3 27 -4 39 -11 16 -11 19 1 15 9 -4 13 3 13 22 0 16 -3 26
-7 23 -5 -2 -8 0 -8 4 0 12 37 42 44 36 3 -4 6 2 6 13 0 11 4 15 8 9 4 -6 20
-11 35 -12 25 -1 26 1 11 12 -29 21 -7 35 43 29 25 -3 49 -1 52 4 9 14 51 25
51 13 0 -5 -8 -12 -17 -14 -10 -2 -4 -2 14 0 28 3 33 0 39 -22 6 -26 19 -31
44 -15 36 22 -43 90 -88 75 -45 -14 -69 -18 -99 -17 -42 1 -76 20 -69 38 4 12
2 12 -14 4 -16 -8 -22 -6 -32 10 -12 19 -28 27 -28 15z"/>
<path d="M2120 622 c0 -13 -49 -21 -57 -10 -7 12 -92 2 -128 -14 -21 -9 -29
-8 -45 7 -11 10 -22 16 -25 13 -11 -11 60 -51 99 -55 22 -2 53 -9 67 -14 21
-8 33 -6 58 9 17 10 28 22 23 27 -4 4 3 3 15 -4 27 -14 36 -14 28 -1 -3 6 4
10 17 9 13 0 17 -3 11 -6 -7 -2 -13 -8 -13 -13 0 -11 33 -7 43 5 5 6 7 3 3 -7
-6 -19 9 -25 19 -8 3 6 14 10 23 10 13 -1 11 -5 -8 -16 l-25 -15 25 7 c30 8
109 6 124 -4 6 -3 23 -5 38 -3 16 1 28 -2 28 -8 0 -6 5 -10 11 -8 6 1 14 -4
16 -11 3 -7 1 -11 -4 -10 -4 2 -8 -2 -8 -7 0 -6 4 -9 9 -7 5 2 6 -5 2 -14 -5
-14 -4 -15 9 -4 13 11 18 10 30 -6 21 -28 18 -7 -6 43 -25 53 -25 53 -264 88
-11 2 -20 4 -20 5 0 1 -13 4 -29 6 -16 3 -38 10 -48 15 -10 6 -18 6 -18 1z"/>
<path d="M1463 613 c-43 -6 -43 -24 0 -20 19 1 34 8 34 15 0 6 -1 11 -1 10 -1
0 -16 -3 -33 -5z"/>
<path d="M1288 602 c-16 -2 -28 -7 -28 -11 0 -12 49 -11 56 1 8 13 4 14 -28
10z"/>
<path d="M2120 562 c0 -8 44 -22 71 -22 20 0 7 15 -13 16 -13 0 -31 4 -40 8
-11 5 -18 4 -18 -2z"/>
<path d="M2088 539 c-23 -14 3 -24 62 -24 32 1 56 -3 54 -7 -8 -12 10 -10 23
3 8 8 17 7 32 -3 12 -8 18 -18 15 -21 -4 -3 5 -4 20 -1 28 5 66 -10 66 -26 0
-38 -117 -28 -127 11 -4 16 -11 19 -27 14 -44 -14 -79 -18 -72 -7 5 8 -14 22
-31 22 -12 0 22 -32 49 -46 25 -13 29 -13 34 1 3 8 13 15 21 15 12 0 13 -3 3
-14 -9 -12 -5 -16 27 -22 56 -10 119 -56 106 -77 -3 -5 0 -8 8 -5 7 2 14 19
14 36 1 21 -3 28 -9 22 -6 -6 -14 -10 -20 -10 -5 0 3 10 17 23 36 30 34 51 -8
83 -30 23 -37 25 -51 13 -15 -12 -16 -11 -9 11 7 22 6 23 -8 11 -10 -8 -27
-11 -41 -7 -14 3 -36 2 -50 -4 -14 -5 -26 -6 -26 -1 0 12 -56 19 -72 10z"/>
<path d="M1576 454 c-20 -20 -21 -19 11 -21 16 0 21 2 13 7 -9 6 -8 10 6 19
17 9 17 10 2 11 -9 0 -24 -7 -32 -16z"/>
<path d="M1088 438 c-2 -13 -9 -22 -15 -21 -7 2 -10 -4 -6 -12 4 -11 9 -13 18
-5 6 5 14 8 17 5 2 -3 3 9 0 25 -5 36 -9 38 -14 8z"/>
<path d="M951 297 c-19 -18 -30 -26 -26 -18 6 11 4 13 -11 7 -10 -4 -31 -10
-46 -13 -16 -3 -28 -10 -28 -15 0 -6 8 -7 18 -3 38 16 49 16 62 0 12 -14 12
-18 -1 -26 -8 -5 -9 -9 -4 -9 6 0 18 9 28 20 10 12 12 20 5 20 -6 0 1 13 17
30 39 41 27 47 -14 7z"/>
<path d="M768 240 c-14 -14 -40 -35 -57 -48 -21 -16 -31 -32 -31 -49 0 -14 -9
-33 -20 -43 -20 -17 -20 -17 6 -17 16 0 21 2 14 7 -8 5 -8 9 -2 11 6 2 12 16
14 30 4 30 25 59 42 59 16 0 69 56 65 67 -2 4 -16 -3 -31 -17z"/>
<path d="M854 245 c-51 -23 -60 -40 -41 -80 21 -45 49 -46 70 -2 9 17 19 31
24 29 4 -2 9 2 12 9 6 20 -23 3 -35 -20 -21 -41 -34 -48 -47 -26 -17 31 -18
52 -2 65 8 7 15 9 15 6 0 -4 10 -1 23 6 12 7 25 11 30 10 4 -1 7 3 7 8 0 13
-18 11 -56 -5z"/>
<path d="M1245 195 c-19 -14 -18 -15 8 -5 26 9 27 8 21 -14 -3 -13 -1 -26 4
-30 6 -3 9 8 8 26 -2 37 -14 44 -41 23z"/>
<path d="M763 181 c0 -11 5 -19 10 -18 5 1 12 -4 15 -12 2 -8 1 -11 -4 -8 -14
8 -33 -18 -24 -33 7 -11 14 -11 34 -2 31 14 32 23 6 47 -11 10 -20 24 -20 32
0 7 -4 13 -9 13 -6 0 -9 -9 -8 -19z"/>
<path d="M616 164 c-9 -8 -16 -22 -16 -30 0 -8 -7 -17 -15 -20 -23 -9 -18 -29
10 -42 36 -17 43 -15 16 4 l-22 16 21 23 c12 13 19 28 15 34 -3 7 2 11 14 11
11 0 23 5 26 10 10 16 -32 11 -49 -6z"/>
<path d="M818 104 c-17 -17 -112 -28 -102 -12 3 4 1 8 -4 8 -6 0 -9 -11 -8
-25 1 -29 1 -29 19 -11 10 10 25 12 55 6 22 -4 40 -4 39 -1 -1 3 4 16 11 29
15 26 12 28 -10 6z"/>
</g>
</svg>
