<?xml version="1.0" standalone="no"?>
<!DOCTYPE svg PUBLIC "-//W3C//DTD SVG 20010904//EN"
 "http://www.w3.org/TR/2001/REC-SVG-20010904/DTD/svg10.dtd">
<svg version="1.0" xmlns="http://www.w3.org/2000/svg"
 width="300.000000pt" height="143.000000pt" viewBox="0 0 300.000000 143.000000"
 preserveAspectRatio="xMidYMid meet">
<metadata>
Created by potrace 1.10, written by Peter Selinger 2001-2011
</metadata>
<g transform="translate(0.000000,143.000000) scale(0.100000,-0.100000)"
fill="#000000" stroke="none">
<path d="M17 1353 c6 -64 11 -76 12 -30 1 20 6 37 12 37 5 0 7 5 4 10 -4 7
478 10 1439 10 l1446 0 5 -22 c3 -13 7 -33 8 -45 2 -39 17 -25 17 16 0 22 3
46 6 55 6 15 -128 16 -1474 16 l-1480 0 5 -47z"/>
<path d="M1995 1347 c-5 -17 -3 -33 3 -39 16 -16 27 18 14 45 -10 22 -10 21
-17 -6z"/>
<path d="M2654 1346 c-7 -20 2 -46 16 -46 13 0 13 47 0 55 -6 3 -13 -1 -16 -9z"/>
<path d="M160 1323 c0 -15 5 -23 12 -21 16 6 17 45 1 45 -7 0 -13 -11 -13 -24z"/>
<path d="M201 1323 c1 -17 3 -21 6 -10 2 9 11 17 19 17 8 0 13 -4 10 -8 -3 -5
1 -9 9 -9 27 0 12 33 -17 35 -25 2 -28 -1 -27 -25z"/>
<path d="M1713 1330 c0 -9 7 -17 14 -17 8 0 12 6 9 14 -3 7 1 13 9 13 7 0 15
-8 17 -17 3 -15 5 -14 10 5 6 20 3 22 -27 20 -24 -1 -33 -7 -32 -18z"/>
<path d="M20 695 c0 -383 3 -585 10 -585 6 0 10 3 10 8 0 4 651 9 1446 11
1209 2 1448 1 1455 -10 12 -19 11 -52 -1 -44 -6 4 -7 11 -4 17 4 6 2 8 -4 4
-16 -10 -10 -46 8 -46 12 0 12 -2 1 -9 -11 -7 -11 -9 0 -14 8 -3 -645 -5
-1451 -5 -806 0 -1449 4 -1430 8 l35 7 -36 2 c-25 1 -39 -4 -43 -14 -5 -13
163 -15 1473 -15 l1478 0 2 635 2 635 -1476 0 -1475 0 0 -585z m125 555 c25
-1 28 -3 15 -13 -8 -7 -16 -21 -17 -32 -5 -37 -9 -54 -16 -61 -7 -7 23 -64 33
-64 3 0 5 -22 4 -50 -2 -30 2 -50 8 -50 7 0 6 -5 -2 -15 -6 -8 -9 -19 -5 -25
10 -16 25 -12 25 9 0 10 9 21 20 24 11 3 18 2 15 -3 -9 -14 65 -9 79 6 12 11
15 11 20 -2 3 -9 4 -20 0 -25 -11 -19 6 -47 26 -42 27 7 48 33 26 33 -9 0 -16
-4 -16 -8 0 -5 -7 -9 -15 -9 -24 0 -17 17 12 28 22 8 30 7 40 -7 10 -14 13
-15 13 -3 0 8 -5 20 -11 26 -8 8 -8 13 0 17 6 4 11 2 11 -5 0 -7 2 -10 5 -7 3
3 -2 24 -11 47 -9 23 -14 45 -10 48 3 3 -6 16 -21 29 -30 26 -26 50 12 64 22
9 24 13 15 31 -7 11 -14 18 -17 15 -3 -3 -18 1 -34 9 -18 10 -30 11 -34 5 -4
-6 -12 -10 -18 -9 -34 4 -48 -2 -45 -18 2 -11 11 -17 21 -15 11 2 17 -4 17
-16 0 -11 7 -25 15 -32 12 -10 15 -10 15 4 0 9 7 16 16 16 13 0 14 -3 4 -15
-14 -17 -6 -50 10 -40 7 4 8 -3 4 -21 -4 -16 -7 -35 -7 -42 0 -8 -8 -12 -20
-8 -10 2 -16 2 -13 -1 11 -11 -15 -45 -30 -39 -8 3 -12 2 -9 -4 3 -5 -4 -8
-15 -7 -25 2 -25 12 0 37 19 19 15 25 -16 21 -6 0 -30 15 -53 36 -45 38 -45
36 -28 123 6 30 31 27 45 -6 7 -14 17 -22 22 -19 6 3 10 0 10 -8 0 -8 6 -20
14 -26 10 -9 15 -8 20 4 3 8 1 15 -3 15 -5 0 -19 16 -31 35 -21 35 -22 37 -4
56 13 15 19 16 25 7 6 -10 11 -10 20 -1 12 12 86 6 105 -8 6 -5 15 -4 20 1 12
12 149 19 192 9 17 -4 35 -3 38 2 3 6 12 6 22 0 10 -6 23 -6 34 0 10 6 19 5
23 -1 4 -7 12 -7 25 0 15 8 17 6 13 -10 -3 -11 -9 -17 -14 -14 -5 3 -9 0 -9
-6 0 -22 -30 -21 -61 1 -18 13 -29 18 -25 11 8 -13 6 -13 -34 -16 -14 0 -38
-11 -55 -22 l-30 -21 -35 33 c-25 24 -38 30 -47 23 -7 -6 -17 -8 -22 -5 -5 4
-12 2 -16 -4 -3 -5 -2 -10 4 -10 5 0 11 -10 13 -22 2 -12 9 -23 17 -26 9 -3
11 0 7 7 -8 13 10 41 26 41 6 0 8 -7 5 -15 -4 -8 -2 -17 4 -20 17 -11 -1 -25
-32 -25 -17 0 -28 -4 -24 -9 3 -5 0 -13 -6 -17 -8 -5 -7 -9 2 -15 11 -6 10
-11 -3 -26 -10 -11 -14 -24 -9 -31 5 -9 14 -4 31 15 26 30 36 20 26 -22 -4
-16 -13 -25 -26 -25 -11 0 -20 -1 -20 -2 0 -2 6 -23 14 -48 l13 -44 7 37 c4
20 11 39 17 43 12 7 41 -15 33 -27 -3 -5 2 -6 10 -3 9 3 16 14 16 23 0 14 -2
14 -10 1 -6 -9 -10 -10 -10 -3 0 6 5 15 12 19 8 5 5 11 -7 20 -10 8 -15 17
-11 21 4 5 16 -2 26 -14 15 -19 19 -20 24 -7 3 8 1 24 -5 36 -6 11 -8 27 -5
35 5 12 3 13 -7 5 -10 -9 -17 -8 -25 0 -17 17 -15 31 3 24 8 -3 14 0 12 7 -1
7 6 11 18 9 27 -5 28 -7 28 -42 0 -22 3 -27 12 -20 7 6 2 -11 -11 -38 -12 -26
-24 -61 -26 -77 -3 -26 0 -30 22 -31 14 0 31 -3 38 -8 20 -12 25 20 7 48 -10
15 -14 33 -10 43 6 15 9 14 22 -11 11 -20 13 -41 8 -70 -13 -79 -13 -78 30
-91 39 -12 40 -12 11 -16 -36 -5 -48 -29 -14 -29 19 -1 20 -2 7 -10 -9 -5 -24
-21 -33 -35 -16 -24 -16 -29 -2 -50 9 -14 12 -25 5 -29 -5 -2 -4 -3 2 -2 7 1
13 15 15 30 2 16 8 34 13 39 6 6 11 18 11 27 0 8 7 27 14 42 14 27 13 29 -12
43 -23 12 -24 14 -7 15 18 1 18 2 4 13 -15 11 -15 15 -3 32 8 10 14 28 14 38
0 16 3 17 15 7 19 -16 19 -1 0 24 -12 16 -12 22 -2 29 9 6 8 7 -3 4 -8 -2 -32
5 -54 15 -36 18 -38 22 -33 57 4 33 1 39 -27 56 -25 15 -27 19 -13 22 9 3 17
9 17 15 0 6 6 6 15 -2 8 -7 15 -19 15 -27 0 -8 4 -12 9 -9 5 4 11 0 14 -6 2
-7 8 -9 13 -5 5 5 1 15 -10 23 -12 8 -14 14 -7 14 8 0 11 6 7 15 -4 12 -2 13
12 6 11 -6 19 -23 20 -46 2 -21 9 -44 17 -52 14 -14 20 -33 11 -33 -3 0 -11 7
-19 15 -8 7 -28 17 -43 20 l-29 6 27 -24 c15 -14 24 -28 21 -31 -4 -3 15 0 42
8 58 18 65 25 54 53 -7 19 -13 22 -39 17 -23 -5 -30 -3 -30 9 0 9 7 22 15 30
26 27 84 59 95 52 5 -3 10 1 10 9 0 13 14 16 78 16 77 0 116 -10 93 -24 -6 -4
-9 -11 -6 -16 2 -4 -5 -20 -16 -34 -21 -26 -21 -28 -3 -41 18 -14 16 -17 -13
-19 -23 -2 -19 -21 5 -24 13 -2 20 -8 16 -14 -4 -7 -2 -8 5 -4 6 4 9 12 6 17
-4 5 4 9 17 9 16 0 19 3 10 9 -8 5 -12 24 -11 47 2 22 -1 45 -5 52 -10 17 5
15 31 -3 31 -21 40 -71 17 -96 -9 -10 -23 -19 -31 -19 -16 0 -17 -16 -1 -26 7
-4 8 -3 4 4 -7 11 6 17 27 13 5 -1 5 4 1 10 -5 9 -2 10 10 6 10 -4 15 -3 11 3
-3 6 1 10 10 10 13 0 16 6 11 26 -17 64 -18 84 -7 84 6 0 12 -8 12 -17 1 -10
3 -25 4 -33 1 -8 3 -23 4 -33 0 -10 17 -27 36 -38 22 -13 35 -29 35 -41 0 -18
-2 -19 -17 -7 -17 13 -17 12 -4 -4 13 -17 62 -47 76 -47 3 0 5 11 5 25 0 19 5
25 17 23 10 -2 18 3 18 10 0 6 5 12 10 11 6 0 8 -8 6 -17 -3 -16 -2 -16 16 0
13 12 23 14 35 7 31 -17 73 20 49 44 -10 10 14 57 30 57 13 0 11 -27 -3 -50
-7 -10 -10 -22 -6 -25 12 -12 75 23 81 44 5 19 3 20 -9 10 -12 -10 -18 -9 -32
6 -13 13 -13 16 -2 11 8 -4 6 0 -4 8 -12 9 -29 13 -43 10 -28 -7 -31 13 -5 32
9 7 17 18 17 26 0 10 21 13 83 14 45 1 82 -3 82 -8 0 -5 -4 -7 -8 -4 -5 3 -9
0 -9 -7 0 -13 42 -16 54 -4 24 25 31 -8 6 -35 -9 -10 -12 -18 -7 -18 17 1 44
27 44 43 0 17 33 33 38 18 2 -5 10 -7 19 -4 10 4 14 2 11 -7 -5 -15 -10 -18
-90 -55 -32 -14 -58 -27 -58 -29 0 -2 18 -4 40 -4 23 -1 38 3 35 9 -4 5 2 9
11 9 16 0 16 -2 -1 -20 -10 -12 -25 -18 -32 -16 -7 3 -13 2 -13 -3 0 -5 -11
-11 -24 -13 -19 -4 -25 0 -29 19 -3 17 2 28 14 36 11 7 19 23 19 36 0 20 -2
21 -15 11 -8 -7 -15 -20 -15 -30 0 -11 -10 -20 -30 -23 -21 -5 -30 -12 -30
-27 0 -11 -6 -20 -12 -20 -31 -1 21 -18 73 -24 46 -6 58 -4 62 8 4 9 14 16 24
16 16 -1 16 -2 -2 -16 -19 -15 -19 -15 -1 -12 13 2 21 -4 25 -19 4 -16 10 -20
20 -14 9 6 11 15 6 27 -14 33 -15 66 -2 61 13 -4 25 -63 22 -107 l-3 -29 30
22 c27 20 28 22 8 29 -26 10 -37 37 -19 48 20 13 30 1 19 -21 -12 -22 2 -25
44 -9 25 9 37 40 16 40 -20 0 -9 29 24 64 36 38 74 51 57 19 -6 -10 -13 -34
-16 -54 -3 -21 -12 -42 -20 -49 -8 -7 -12 -16 -9 -21 10 -16 24 -9 24 11 0 12
9 24 22 29 14 5 17 10 10 15 -16 10 -15 41 2 55 8 7 12 20 9 31 -4 13 3 23 24
34 32 16 163 27 163 13 0 -4 9 -3 20 3 12 6 30 8 41 5 16 -5 18 -10 8 -21 -20
-24 -21 -77 -3 -91 23 -17 1 -43 -35 -42 -34 1 -58 -5 -68 -16 -4 -4 -2 -5 6
0 10 5 12 4 7 -4 -4 -6 -12 -9 -17 -6 -5 4 -9 4 -9 1 0 -2 -3 -12 -6 -21 -6
-14 -3 -14 20 -4 14 7 26 16 26 21 0 10 40 1 54 -12 4 -5 -5 -15 -22 -24 -38
-20 -40 -20 -44 -1 -2 12 -11 9 -38 -14 -26 -22 -30 -30 -17 -31 9 0 17 -5 17
-10 0 -7 -14 -9 -37 -5 -31 4 -34 3 -15 -4 12 -6 22 -15 22 -21 0 -15 -26 -12
-40 4 -13 17 -35 12 -65 -14 -11 -10 -27 -20 -35 -23 -12 -4 -11 -6 3 -6 9 -1
17 -5 17 -10 0 -5 -9 -7 -20 -4 -11 3 -20 9 -20 14 0 5 -7 9 -15 9 -8 0 -15
-4 -15 -10 0 -5 5 -10 12 -10 18 0 0 -13 -23 -17 -11 -2 -32 -10 -47 -19 -26
-15 -23 -15 26 0 13 5 22 3 22 -3 0 -6 -8 -11 -17 -11 -10 -1 -36 -9 -58 -20
l-40 -19 44 -1 c38 0 47 5 80 42 41 46 74 49 64 6 l-6 -23 24 22 c13 11 40 28
59 36 35 14 67 42 105 91 11 13 26 27 35 29 8 3 23 8 32 12 12 5 17 1 20 -16
5 -37 28 -35 28 2 0 18 -3 29 -7 26 -3 -4 -11 3 -18 16 -13 25 1 43 21 26 8
-7 18 1 32 25 l20 35 -29 10 c-16 5 -29 15 -29 20 0 16 21 13 41 -5 19 -18 39
-11 39 12 0 24 23 42 53 42 15 0 27 -4 27 -8 0 -10 -32 -36 -54 -44 -15 -5
-16 -9 -6 -22 7 -8 19 -13 26 -10 16 6 28 -10 14 -19 -5 -3 -10 -15 -10 -26 0
-10 -6 -19 -14 -19 -21 0 -30 19 -16 35 10 12 9 16 -5 22 -21 7 -45 -20 -45
-50 0 -13 5 -17 15 -13 19 7 30 -17 20 -41 -5 -12 -9 -14 -12 -5 -3 6 -17 11
-31 11 -21 -1 -23 -2 -7 -6 11 -3 25 -9 32 -15 29 -23 79 30 88 94 5 32 16 57
36 78 30 31 42 63 14 40 -16 -13 -35 -6 -35 15 0 27 33 26 55 -1 15 -19 24
-24 29 -16 4 7 19 12 32 12 41 0 23 -24 -22 -30 -25 -3 -34 -8 -26 -13 21 -14
13 -24 -14 -19 -19 3 -25 1 -20 -7 4 -6 1 -11 -7 -11 -18 0 -30 -27 -15 -32
20 -7 18 -38 -3 -38 -10 0 -19 -4 -19 -10 0 -14 21 -12 39 4 22 19 61 30 61
17 0 -6 7 -11 15 -11 8 0 15 4 15 10 0 5 7 7 15 4 10 -4 15 0 15 16 0 11 4 19
9 15 6 -3 8 -15 6 -26 -3 -15 0 -19 11 -15 8 3 17 -1 21 -10 8 -20 -2 -28 -24
-19 -34 15 -48 15 -118 -2 -39 -9 -83 -27 -98 -40 -16 -12 -38 -23 -50 -23
-29 -1 -63 -26 -45 -33 8 -3 4 -9 -12 -15 -27 -12 -21 -15 22 -12 16 1 42 -6
59 -14 49 -25 68 0 27 34 -17 14 -20 21 -12 30 9 9 16 6 28 -11 9 -13 16 -30
16 -37 0 -32 25 -2 28 34 4 41 28 78 45 67 6 -3 7 -1 3 5 -5 8 1 12 16 12 13
0 19 -4 13 -8 -5 -4 -10 -16 -10 -27 0 -14 -7 -20 -23 -21 -31 -2 -36 -9 -28
-39 5 -18 13 -25 32 -25 14 0 23 -4 19 -10 -3 -6 -17 -7 -30 -4 -13 3 -37 -2
-55 -11 l-33 -17 28 -18 c34 -22 62 -15 81 21 8 16 14 31 14 34 0 3 6 18 13
33 8 15 12 32 10 38 -2 6 1 23 7 38 10 26 10 26 40 11 16 -8 31 -15 32 -14 2
2 13 -3 26 -10 22 -12 23 -11 12 9 -11 21 -8 68 7 107 4 11 2 14 -8 11 -13 -4
-15 -10 -18 -51 -1 -14 -4 -15 -20 -5 -10 6 -17 17 -14 25 3 7 9 10 14 7 5 -3
9 0 9 5 0 6 -9 11 -20 11 -24 0 -26 19 -5 46 10 14 14 15 15 5 0 -11 4 -9 15
5 14 18 14 18 15 -4 0 -12 -7 -25 -15 -28 -8 -4 -13 -10 -10 -14 7 -11 53 12
60 30 4 8 -1 20 -9 26 -17 12 -21 39 -8 47 12 8 202 -9 212 -19 5 -5 11 -20
15 -34 5 -22 3 -25 -23 -25 -17 0 -39 8 -49 18 -19 17 -21 16 -46 -9 -15 -15
-27 -32 -27 -38 0 -6 6 -4 13 5 18 24 57 34 57 15 0 -12 10 -16 35 -16 24 0
35 -5 35 -15 0 -10 -11 -15 -37 -16 -21 -1 -49 -4 -63 -8 -16 -5 -36 -2 -53 6
-36 18 -44 11 -23 -21 20 -31 21 -47 1 -40 -9 4 -15 0 -15 -7 0 -11 -3 -11
-10 1 -11 17 -13 10 -4 -14 5 -13 15 -9 57 19 29 19 61 35 73 35 30 0 84 -29
84 -46 0 -16 -16 -19 -25 -4 -4 6 -11 8 -16 5 -5 -4 -9 0 -9 8 0 14 -20 27
-42 27 -6 0 -7 -7 -4 -16 4 -11 0 -14 -17 -12 -17 2 -23 -3 -25 -20 -2 -13
-10 -26 -18 -29 -28 -11 -3 -20 41 -15 42 4 61 -7 36 -23 -14 -8 -95 12 -99
25 -3 7 -8 7 -15 1 -21 -17 -63 -16 -90 2 -32 21 -57 22 -57 2 0 -8 5 -15 11
-15 5 0 7 -5 4 -11 -5 -7 5 -8 29 -4 30 6 35 5 30 -8 -3 -8 -1 -18 4 -21 5 -3
12 3 15 14 3 11 10 20 17 20 6 0 9 -4 5 -9 -3 -6 6 -9 19 -8 14 1 25 -2 25 -8
0 -5 -12 -9 -26 -8 -14 1 -31 -4 -39 -11 -11 -12 -11 -16 2 -27 8 -7 13 -21
10 -31 -7 -28 16 -17 32 14 7 14 26 31 44 37 41 14 48 7 8 -9 -16 -7 -36 -25
-44 -41 -15 -31 -4 -41 13 -11 6 9 11 11 11 5 0 -7 4 -13 9 -13 5 0 7 8 5 18
-3 11 4 21 21 29 20 9 25 8 25 -3 0 -8 6 -11 15 -8 22 9 18 -14 -4 -26 -26
-13 -34 -13 -25 2 4 7 3 8 -5 4 -6 -4 -9 -11 -6 -16 3 -4 -1 -11 -7 -13 -8 -3
-6 -6 5 -6 22 -1 23 -31 1 -31 -9 0 -22 6 -28 14 -16 22 -91 25 -84 4 6 -17
76 -34 131 -32 26 1 47 0 47 -2 0 -8 -56 -27 -120 -39 -114 -23 -137 -31 -117
-40 10 -4 46 -5 79 -1 68 7 164 54 162 78 -1 8 5 15 13 15 8 0 12 -7 8 -16 -3
-11 0 -10 10 3 8 11 15 24 15 28 0 5 9 4 21 -2 16 -9 24 -8 39 5 13 11 20 13
25 5 10 -16 2 -21 -42 -27 -44 -6 -47 -8 -38 -22 15 -26 77 -9 118 32 21 21
22 21 25 3 5 -22 -22 -46 -50 -46 -10 0 -21 -7 -25 -15 -8 -23 27 -45 62 -40
17 3 24 2 18 -1 -18 -8 -16 -27 2 -20 8 3 15 1 15 -4 0 -6 -6 -10 -13 -10 -21
0 -94 38 -100 52 -2 7 -20 19 -40 26 -33 12 -39 11 -102 -23 -37 -19 -77 -35
-89 -35 -29 0 -39 -10 -25 -26 6 -8 7 -14 0 -18 -6 -4 -8 -13 -4 -21 6 -17 2
-18 -21 -9 -9 3 -16 15 -16 26 0 10 -4 17 -9 13 -5 -3 -16 3 -23 13 -7 11 -24
23 -38 27 -14 4 -63 27 -109 51 -46 24 -86 44 -88 44 -2 0 3 -13 12 -30 9 -16
23 -30 33 -30 10 0 27 -7 39 -15 12 -8 29 -12 39 -8 13 5 16 3 11 -10 -4 -12
-2 -14 10 -10 12 5 15 2 10 -10 -3 -9 -2 -19 2 -21 5 -3 11 -20 15 -38 7 -35
22 -29 28 11 1 14 8 26 15 28 12 4 12 -14 0 -34 -4 -6 -3 -14 3 -18 5 -3 10
-1 10 5 0 6 4 8 10 5 6 -3 10 -13 10 -21 0 -8 -4 -12 -10 -9 -5 3 -10 2 -10
-3 0 -6 17 -8 40 -5 26 4 40 2 40 -6 0 -6 -9 -11 -20 -11 -11 0 -20 -4 -20 -8
0 -4 -13 -15 -29 -25 -31 -18 -138 -23 -176 -8 -12 5 -30 3 -45 -4 -35 -18
-135 -31 -126 -16 4 6 22 11 41 11 42 0 84 15 89 32 3 7 7 25 10 41 4 16 13
27 22 27 14 0 14 3 4 15 -10 12 -10 15 0 15 9 0 9 4 -1 17 -12 14 -12 16 0 12
26 -9 36 -36 25 -66 -5 -15 -15 -28 -21 -28 -6 0 -15 -3 -19 -7 -11 -12 12 -9
41 4 17 7 25 20 26 37 2 42 -1 51 -28 82 -28 30 -45 38 -41 17 2 -7 -3 -12
-10 -10 -10 2 -10 -2 0 -18 7 -10 9 -22 6 -26 -15 -14 -26 10 -37 81 -7 41
-19 81 -26 89 -8 7 -11 17 -7 21 4 5 -4 5 -18 2 -23 -5 -23 -5 -7 7 17 13 15
15 -18 36 -29 18 -44 21 -80 15 -29 -4 -49 -13 -55 -25 -8 -16 -8 -18 5 -14 8
4 15 9 15 13 0 4 8 7 19 7 29 0 7 -52 -26 -60 -20 -6 -23 -9 -13 -21 11 -13
15 -12 31 6 11 12 19 25 19 30 0 4 9 5 20 2 11 -3 27 0 35 7 10 8 15 9 15 2 0
-6 -5 -14 -10 -17 -7 -4 -6 -13 1 -27 9 -16 13 -18 20 -7 4 7 11 11 14 7 3 -3
-8 -16 -24 -28 -30 -20 -31 -20 -31 -2 0 11 -7 19 -17 19 -27 0 -41 -14 -38
-40 1 -12 3 -28 4 -34 1 -14 66 -18 95 -7 23 9 20 26 -4 19 -14 -4 -20 -2 -20
8 0 20 42 29 58 13 11 -11 12 -18 1 -37 -17 -33 -28 -39 -71 -39 -27 0 -38 -4
-38 -15 0 -13 -4 -14 -20 -5 -11 6 -20 18 -20 26 0 8 -5 12 -10 9 -15 -9 -24
23 -11 39 8 9 8 22 2 39 -12 32 -31 43 -42 26 -5 -8 -9 -10 -9 -4 0 5 -5 4
-12 -3 -8 -8 -15 -8 -24 -1 -9 7 -24 4 -53 -10 -47 -24 -106 -28 -118 -7 -11
20 -134 22 -228 6 l-70 -13 55 -14 c41 -10 61 -11 81 -3 15 7 45 10 66 9 21
-2 44 1 52 5 8 5 19 3 27 -5 11 -12 8 -16 -22 -25 -27 -9 -34 -9 -30 1 3 8 -9
12 -35 13 -37 2 -48 -6 -31 -22 7 -7 8 -11 11 -37 1 -8 5 -8 14 -1 14 12 51
-10 39 -24 -4 -5 3 0 16 11 18 15 25 16 31 6 15 -24 1 -49 -25 -46 -13 1 -21
-2 -18 -7 9 -14 74 -2 93 17 15 16 14 17 -6 10 -26 -7 -32 9 -7 19 22 9 34 -1
34 -28 0 -31 -18 -44 -74 -55 -26 -5 -50 -12 -54 -16 -4 -3 4 -4 18 -1 14 2
43 8 64 11 56 9 84 31 88 68 2 21 9 33 21 35 32 6 17 -33 -35 -89 -10 -11 -29
-19 -43 -19 -26 0 -34 -15 -12 -23 6 -3 -7 -6 -31 -6 -31 -1 -41 2 -36 11 5 8
2 9 -12 3 -10 -4 -36 -11 -57 -15 -45 -9 -65 -24 -46 -35 8 -5 10 -4 5 3 -10
17 43 28 57 12 9 -10 9 -11 0 -6 -6 3 -18 3 -27 0 -12 -4 -13 -10 -4 -24 13
-20 3 -55 -12 -45 -5 3 -10 1 -10 -6 0 -8 -14 -10 -45 -7 -26 3 -48 1 -52 -5
-4 -6 0 -8 10 -4 10 3 17 3 17 -2 0 -5 -8 -11 -18 -14 -11 -2 -21 -14 -24 -25
-6 -21 -5 -21 23 -7 15 8 34 15 41 15 7 0 24 9 38 20 14 11 33 20 43 20 15 0
15 -3 5 -20 -7 -11 -22 -19 -32 -18 -11 2 -21 -3 -23 -9 -7 -18 38 -16 65 3
15 10 22 25 22 49 0 19 5 37 10 40 6 3 7 17 4 30 -8 31 9 39 31 15 16 -18 17
-25 6 -61 -15 -48 -11 -56 14 -29 10 11 26 20 35 20 10 0 23 7 30 15 10 13 9
15 -11 15 -19 0 -21 -2 -9 -10 12 -8 11 -10 -7 -10 -16 0 -20 5 -16 20 3 11 0
27 -7 35 -13 16 -8 18 28 9 12 -4 22 -13 22 -21 0 -13 2 -13 17 -2 15 12 16
12 10 -4 -4 -9 -2 -17 4 -17 6 0 9 8 6 19 -6 23 10 51 28 51 8 0 15 7 15 15 0
25 40 78 76 102 33 21 46 19 23 -4 -8 -8 -5 -13 10 -18 33 -10 24 -65 -14 -85
-17 -8 -31 -18 -33 -22 -2 -5 -22 -8 -43 -8 -22 0 -38 -4 -35 -9 3 -5 35 -3
72 4 55 10 67 10 71 -1 7 -19 49 -18 57 1 3 8 11 14 17 13 6 -2 23 18 38 44
33 60 59 80 84 66 23 -12 14 -22 -21 -23 -18 0 -28 -6 -30 -20 -3 -11 -10 -24
-18 -28 -16 -9 -19 -27 -4 -27 6 0 18 8 28 18 11 11 33 19 51 20 46 1 34 -21
-18 -33 l-42 -11 28 -11 c25 -10 25 -11 6 -12 -12 -1 -33 3 -47 8 -18 7 -28 6
-36 -5 -7 -7 -9 -14 -4 -14 5 0 4 -4 -2 -8 -6 -4 -14 -20 -18 -36 -6 -26 -6
-27 9 -12 9 9 21 16 26 16 8 0 14 -47 10 -73 -2 -10 36 10 44 23 9 15 25 12
25 -5 0 -11 8 -13 33 -8 35 7 48 19 40 40 -5 12 -9 11 -27 -1 -29 -18 -82 -10
-65 10 6 8 23 14 38 14 14 0 32 4 40 9 8 5 21 7 28 4 12 -5 12 -7 1 -15 -10
-7 -10 -11 0 -15 6 -2 12 -13 12 -24 0 -10 4 -19 9 -19 5 0 7 10 3 23 -5 21
-4 21 14 5 10 -9 37 -18 59 -20 37 -3 40 -1 43 23 2 18 11 29 25 33 30 8 34
-1 9 -24 -12 -12 -22 -26 -22 -32 0 -9 3 -9 12 0 7 7 20 12 30 12 10 0 18 4
18 10 0 5 10 18 22 30 21 19 21 20 2 20 -16 1 -17 2 -3 10 20 11 76 14 109 5
22 -6 21 -5 -6 13 -47 30 -83 112 -50 112 17 0 31 -31 18 -39 -12 -8 4 -51 18
-51 5 0 9 3 8 8 -3 10 21 52 30 52 5 0 6 -15 4 -34 -4 -37 20 -96 32 -77 4 6
2 11 -5 11 -6 0 -1 9 12 20 24 19 24 19 2 20 -12 0 -24 -6 -26 -13 -3 -6 -6
-2 -6 11 -1 13 3 21 8 18 5 -4 7 4 3 16 -4 15 -2 19 7 14 17 -11 51 23 51 51
0 16 6 23 20 23 11 0 20 5 20 10 0 12 48 3 68 -13 9 -7 10 -13 2 -21 -13 -13
-13 -39 0 -31 6 4 8 9 6 13 -2 4 2 12 8 18 10 9 16 7 25 -8 7 -12 8 -17 2 -13
-17 10 -61 -45 -60 -74 2 -24 2 -25 6 -3 4 18 8 21 18 12 10 -9 15 -6 21 12 4
13 7 26 6 31 -1 4 2 7 8 7 15 0 12 -18 -7 -51 -12 -20 -31 -33 -57 -40 -34 -9
-37 -12 -23 -21 14 -8 16 -13 6 -24 -9 -11 -8 -14 7 -14 11 0 25 4 33 9 15 10
49 -15 37 -27 -11 -11 -56 -13 -56 -3 0 6 -7 8 -15 5 -8 -4 -35 3 -60 15 -24
11 -52 18 -61 14 -16 -6 -16 -7 2 -14 17 -7 17 -8 2 -8 -12 -1 -18 -9 -18 -24
0 -13 -12 -34 -27 -47 -24 -21 -25 -24 -9 -35 10 -8 13 -15 6 -18 -6 -3 -5 -4
2 -3 7 2 13 9 13 17 0 8 11 16 25 17 l25 4 -24 -26 c-20 -21 -21 -26 -8 -26 9
0 21 -9 27 -20 13 -25 31 -25 58 -1 22 18 31 38 13 27 -5 -3 -12 6 -15 20 -5
20 -12 25 -26 21 -22 -6 -27 16 -10 43 5 8 5 19 0 25 -6 7 -2 11 11 12 22 2
24 -7 7 -26 -11 -11 -10 -13 5 -8 16 6 21 -3 20 -40 -1 -7 5 -13 13 -13 8 0
14 -8 14 -17 0 -13 3 -14 8 -6 9 14 47 22 47 11 0 -4 9 -13 19 -21 14 -10 16
-16 7 -22 -7 -4 -18 -2 -24 4 -21 21 -54 13 -59 -14 -4 -19 -1 -25 11 -25 10
0 22 5 29 12 9 9 12 9 12 0 0 -7 -7 -15 -15 -18 -11 -5 -11 -9 -2 -19 9 -9 16
-9 29 -2 9 6 20 8 24 5 11 -12 -7 -28 -32 -28 -13 0 -24 -4 -24 -8 0 -5 13 -8
30 -7 23 1 30 -2 30 -17 0 -10 -8 -19 -17 -20 -10 -1 -177 -2 -370 -2 -234 -1
-353 2 -353 9 0 5 -5 3 -10 -5 -8 -13 -10 -13 -10 2 0 11 -14 24 -34 32 -64
27 -60 51 9 48 50 -2 69 13 27 23 -27 5 -85 -15 -97 -36 -4 -5 -11 -9 -16 -9
-6 0 -7 5 -4 10 3 6 1 10 -5 10 -6 0 -8 5 -5 10 4 6 -5 10 -21 10 -15 0 -40
12 -59 28 -21 19 -48 31 -81 36 -26 3 -63 12 -81 18 -29 10 -39 10 -68 -6 -19
-10 -32 -23 -29 -27 7 -12 61 -11 69 1 3 5 17 9 30 8 18 -2 21 -5 13 -15 -6
-7 -19 -13 -30 -13 -10 0 -16 -4 -13 -10 12 -20 52 -11 59 12 4 16 8 20 16 12
16 -16 1 -44 -24 -45 -19 -1 -18 -2 4 -8 35 -10 8 -24 -30 -16 -26 6 -30 4
-30 -14 0 -25 -15 -28 -28 -5 -7 13 -15 14 -48 5 -49 -14 -129 -14 -155 -1
-11 6 -19 21 -19 35 0 17 -6 25 -18 25 -27 0 -109 55 -180 121 -34 33 -67 59
-72 59 -14 0 -25 -23 -12 -28 7 -2 12 -12 12 -21 0 -10 11 -23 23 -28 19 -9
23 -17 19 -42 -2 -17 -2 -38 2 -46 5 -14 10 -13 35 6 34 25 52 18 47 -19 -8
-58 -17 -72 -50 -74 -50 -3 -59 -2 -89 5 -22 6 -29 4 -35 -13 -7 -19 -9 -19
-27 -5 -17 13 -18 16 -5 26 13 9 13 10 0 6 -19 -5 -50 30 -43 49 3 9 -2 14
-16 14 -12 0 -28 12 -38 28 -9 15 -18 29 -19 31 -5 6 -150 31 -186 31 -20 0
-39 -4 -42 -9 -7 -11 48 -22 71 -15 15 5 16 4 3 -5 -13 -9 -13 -11 0 -12 91
-6 132 -21 96 -35 -13 -5 -14 -9 -6 -14 7 -4 10 -13 6 -19 -9 -14 -48 9 -42
25 3 7 -3 10 -15 7 -12 -3 -29 3 -42 14 -24 22 -57 32 -130 40 -28 3 -51 11
-54 19 -3 8 -13 14 -22 13 -12 0 -11 -3 7 -16 38 -27 20 -84 -20 -62 -21 11
-14 33 8 25 19 -7 27 9 10 23 -19 16 -102 -2 -124 -27 -12 -13 -17 -34 -15
-61 2 -34 -1 -41 -15 -39 -12 2 -18 -5 -19 -22 -1 -14 1 -18 3 -9 8 28 41 28
96 0 46 -23 87 -36 183 -55 11 -2 -140 -4 -335 -5 -232 0 -350 3 -340 9 8 5
26 10 39 10 23 0 190 76 201 91 3 4 19 9 35 11 24 2 34 12 51 45 11 24 24 40
27 36 4 -3 7 -1 7 5 0 8 20 12 53 13 28 0 46 3 39 6 -10 4 -10 8 0 21 10 12
10 14 1 8 -7 -4 -13 -5 -13 -2 0 2 -3 11 -6 19 -3 10 3 17 20 21 25 6 37 26
15 26 -5 0 -8 4 -4 9 9 16 -27 31 -47 20 -13 -7 -18 -6 -18 5 0 8 8 17 18 19
13 4 11 5 -5 6 -14 1 -23 8 -24 19 0 10 -3 12 -6 4 -3 -7 0 -26 6 -42 10 -29
9 -30 -15 -24 -20 5 -23 3 -18 -11 5 -11 9 -13 14 -5 5 8 11 6 20 -5 18 -22 5
-30 -25 -17 -20 9 -25 9 -25 -3 0 -8 11 -20 25 -27 17 -9 22 -17 15 -27 -7
-12 -12 -12 -34 3 -27 17 -33 45 -16 77 10 17 7 21 -21 33 -30 13 -41 12 -101
-10 -25 -9 -28 -41 -7 -60 10 -9 19 -28 19 -41 0 -25 -10 -29 -28 -11 -9 9 -9
15 1 27 8 10 8 13 0 8 -6 -4 -13 -2 -15 5 -7 19 -45 -26 -53 -61 -4 -17 -11
-31 -16 -31 -13 0 -11 24 3 38 9 9 8 12 -4 12 -9 0 -20 -4 -23 -10 -10 -16
-26 -11 -23 8 4 25 25 44 45 41 25 -4 60 17 66 40 5 20 4 20 -29 1 -19 -10
-43 -16 -53 -13 -10 3 -22 0 -25 -6 -4 -6 -18 -8 -31 -5 -12 3 -26 1 -30 -6
-5 -8 -10 -8 -21 1 -20 16 -31 -16 -13 -39 11 -13 9 -13 -9 2 -12 11 -25 16
-30 11 -4 -4 -1 -10 6 -12 6 -3 12 -10 12 -16 0 -6 -8 -4 -17 6 -16 16 -15 19
12 48 26 27 35 30 68 26 l39 -5 -23 26 c-13 15 -28 32 -33 37 -5 6 -7 5 -4 -4
4 -15 -25 -51 -41 -51 -11 0 -19 66 -10 81 11 19 92 22 114 4 11 -9 15 -14 8
-11 -6 4 -13 0 -16 -6 -3 -9 -10 -7 -21 7 -15 19 -16 19 -5 -10 6 -16 18 -38
26 -47 17 -19 53 -24 53 -8 0 6 -9 10 -19 10 -26 0 -37 18 -15 27 11 4 23 -1
34 -15 15 -19 20 -19 43 -7 14 7 32 18 39 24 7 7 22 18 33 26 19 14 19 14 -6
15 -15 0 -43 7 -63 15 -23 10 -43 12 -54 7 -9 -5 -28 -6 -42 -1 -14 4 -19 7
-12 8 6 1 13 1 15 0 1 0 15 4 30 10 22 9 35 8 57 -4 48 -25 48 -17 -1 15 -31
21 -64 32 -100 36 -30 3 -61 8 -69 11 -8 4 -18 7 -22 7 -16 2 -19 16 -3 16 14
0 15 3 5 15 -8 9 -13 56 -14 129 -2 107 -1 114 15 105 10 -5 31 -9 47 -9 33 0
45 -9 33 -24 -14 -18 -19 -65 -7 -71 6 -3 -1 -3 -16 0 -16 3 -28 1 -28 -5 0
-9 30 -15 53 -11 5 1 6 -2 4 -6 -12 -19 86 -178 103 -168 10 6 -18 67 -37 78
-7 4 -13 13 -13 18 0 6 5 7 10 4 6 -4 10 11 10 39 0 43 -2 46 -32 54 -35 9
-50 32 -21 33 10 0 13 3 6 6 -15 5 -18 33 -4 33 15 0 33 -29 27 -45 -3 -9 3
-19 14 -25 14 -7 20 -7 20 0 0 5 -6 10 -12 10 -9 0 -8 3 2 10 12 8 7 17 -30
55 -36 36 -50 45 -70 40 -46 -9 -75 32 -44 63 13 13 18 12 40 -8 l24 -23 0 32
c0 39 -20 61 -54 61 -25 0 -66 44 -53 57 9 8 37 -17 37 -33 0 -8 9 -14 21 -14
16 0 19 4 13 18 -4 9 -8 26 -8 38 -1 11 -6 21 -13 21 -7 0 -9 -5 -6 -11 4 -6
-3 -2 -15 8 -18 16 -21 26 -16 64 7 58 11 65 38 58 11 -3 35 -6 51 -6z m1125
-24 c14 -16 18 -26 10 -21 -8 5 -12 4 -7 0 15 -17 38 -13 53 11 9 13 23 24 30
24 21 0 17 -21 -6 -27 -12 -3 -23 -17 -26 -32 -3 -14 -10 -34 -15 -44 -6 -10
-7 -28 -3 -40 6 -19 5 -20 -10 -8 -9 7 -16 9 -16 4 0 -5 -9 -9 -20 -10 -11 -1
-18 2 -15 8 8 12 -6 11 -25 -1 -13 -8 -13 -10 1 -10 9 0 19 -6 22 -13 8 -22
-34 -13 -54 11 -9 12 -22 22 -27 22 -5 0 -15 6 -21 14 -15 18 -4 93 12 77 7
-7 6 -15 -2 -24 -9 -11 -8 -17 3 -26 11 -9 14 -4 14 29 1 25 -4 40 -11 40 -7
0 -13 9 -13 20 0 27 14 25 28 -5 11 -25 31 -25 21 0 -3 8 0 15 5 15 6 0 14 -9
17 -20 9 -28 35 -26 34 3 0 20 -1 20 -8 3 -5 -14 -10 -16 -15 -7 -4 6 -2 19 5
27 6 8 12 13 13 12 1 -2 12 -16 26 -32z m588 9 c-1 -13 -4 -22 -6 -20 -14 13
-89 -83 -84 -107 1 -5 -2 -8 -8 -8 -5 0 -10 3 -10 8 0 8 -61 38 -72 34 -5 -1
-8 5 -8 15 0 9 3 13 7 10 11 -11 55 45 50 64 -5 19 6 22 90 26 39 1 42 -1 41
-22z m664 14 c2 7 8 7 18 1 13 -9 13 -11 1 -19 -8 -5 -20 -7 -28 -4 -7 3 -13
-1 -14 -8 0 -8 -4 -5 -8 6 -11 26 -3 39 14 25 8 -7 14 -7 17 -1z m314 -23 c1
-10 8 -24 14 -30 8 -8 10 -7 5 5 -7 19 31 52 48 42 5 -3 -2 -11 -15 -17 -12
-7 -22 -19 -20 -26 2 -7 -3 -17 -10 -22 -9 -7 -7 -8 7 -6 11 2 24 13 30 26 11
25 31 31 21 6 -3 -8 -2 -12 3 -9 5 3 12 1 16 -5 3 -5 0 -10 -8 -10 -23 0 -39
-24 -25 -38 9 -9 9 -12 -2 -13 -8 0 -4 -4 8 -10 13 -5 29 -6 34 -2 6 3 8 1 5
-4 -4 -6 -19 -14 -34 -18 -41 -9 -73 -33 -73 -52 0 -14 3 -13 16 5 16 23 50
31 40 10 -3 -7 -9 -21 -12 -30 -4 -10 -12 -18 -19 -18 -19 0 -43 -32 -27 -37
29 -10 8 -23 -35 -20 -40 2 -48 -1 -51 -18 -2 -16 -1 -17 7 -5 5 8 13 11 17 7
14 -14 13 -38 -2 -44 -8 -3 -13 -17 -13 -32 1 -17 3 -20 6 -8 2 9 8 15 12 12
14 -8 131 113 131 135 0 11 5 20 10 20 12 0 12 -2 0 -36 -9 -24 -8 -26 10 -21
11 3 18 2 15 -3 -3 -4 -17 -11 -32 -15 -31 -7 -53 -23 -53 -37 0 -5 12 0 26
11 33 26 39 26 41 1 1 -16 -3 -20 -16 -15 -10 3 -24 -1 -31 -10 -7 -8 -23 -15
-36 -15 -46 0 -30 -15 18 -16 27 -1 54 -7 61 -14 10 -10 8 -11 -10 -6 -12 4
-24 2 -29 -5 -5 -9 -11 -7 -20 5 -15 22 -50 17 -48 -7 1 -9 -5 -17 -12 -17
-12 0 -12 5 -4 23 10 20 9 20 -9 -3 -11 -14 -21 -28 -21 -31 0 -10 -30 -6 -30
4 0 6 -8 3 -18 -6 -25 -23 -35 -21 -20 2 7 11 16 17 20 15 4 -3 8 3 8 13 0 11
5 24 10 29 7 7 7 21 -1 43 -11 30 -9 35 15 59 14 15 26 21 26 14 0 -7 5 -10
10 -7 6 3 10 15 10 26 0 11 4 18 9 14 18 -10 24 18 22 97 -1 52 -6 87 -16 101
-19 28 -19 39 2 35 9 -2 17 -11 19 -22z m-608 -31 c1 -19 -3 -35 -9 -35 -6 0
-9 7 -5 15 3 8 2 14 -2 14 -24 -4 -42 3 -42 16 0 18 12 19 29 3 7 -7 12 -8 11
-3 -4 16 -1 25 8 25 5 0 9 -16 10 -35z m-1888 6 c0 -17 -12 -41 -21 -41 -10 0
-12 33 -2 43 9 10 23 9 23 -2z m2110 -63 c0 -7 -5 -20 -10 -28 -12 -19 -35 2
-27 24 7 19 37 21 37 4z m295 -108 c15 -17 16 -23 5 -33 -10 -9 -11 -9 -6 1 5
8 -3 14 -23 18 -25 5 -29 9 -20 20 15 19 23 18 44 -6z m-2348 -16 c8 -20 -13
-42 -27 -28 -12 12 -3 44 11 44 5 0 12 -7 16 -16z m205 -32 c4 -12 -1 -18 -13
-18 -20 0 -22 5 -13 30 7 19 20 13 26 -12z m1420 -254 c-6 -6 -15 -2 -24 11
-8 12 -18 18 -21 14 -11 -10 -8 -43 3 -43 6 0 10 -4 10 -9 0 -5 -11 -8 -25 -8
-14 0 -25 3 -25 8 0 17 -36 14 -53 -5 -15 -17 -20 -18 -42 -6 -20 11 -27 11
-40 0 -11 -9 -15 -9 -15 -1 0 8 -11 10 -34 7 -23 -4 -36 -1 -39 8 -7 16 61 21
80 5 10 -9 13 -8 13 5 0 11 9 16 28 16 15 1 38 7 52 14 16 9 31 11 41 5 13 -6
18 -4 22 11 3 13 11 18 20 14 8 -3 18 0 22 7 6 8 13 3 22 -16 10 -18 11 -31 5
-37z m766 -31 c4 -20 -18 -23 -36 -5 -9 9 -12 9 -12 0 0 -6 -7 -9 -15 -6 -8 3
-22 -1 -30 -10 -12 -12 -13 -16 -3 -16 10 0 10 -2 -1 -9 -7 -5 -10 -14 -7 -20
4 -6 2 -11 -3 -11 -17 0 -13 56 6 71 9 8 24 13 35 11 10 -2 18 1 18 6 0 16 45
6 48 -11z m-42 -54 c-3 -8 -6 -17 -6 -19 0 -2 -7 -4 -15 -4 -15 0 -21 31 -9
43 11 11 35 -5 30 -20z m-576 6 c0 -14 -26 -40 -33 -32 -8 8 11 43 23 43 6 0
10 -5 10 -11z m-68 -28 c-11 -6 -10 -10 4 -15 20 -8 10 -20 -24 -31 -21 -6
-22 -4 -16 22 10 40 24 57 38 43 8 -8 7 -13 -2 -19z m-2019 -23 c6 8 124 9
132 0 3 -3 -28 -11 -67 -18 -40 -7 -79 -17 -85 -22 -9 -7 -13 -7 -13 1 0 7 -4
9 -10 6 -5 -3 -10 -1 -10 4 0 6 7 11 15 11 10 0 12 6 8 18 -6 14 -4 15 9 4 9
-7 19 -9 21 -4z m176 -67 c10 -6 10 -10 1 -16 -15 -10 -62 3 -55 15 8 12 35
13 54 1z m2174 -66 c-19 -14 -43 -9 -43 9 0 8 11 11 30 8 28 -4 29 -6 13 -17z
m-1856 -6 c1 -12 -1 -19 -4 -15 -3 3 -12 1 -19 -5 -15 -12 -29 5 -20 26 9 23
41 18 43 -6z m-173 5 c11 -4 16 -19 16 -44 0 -22 4 -41 10 -45 21 -13 -24 -85
-52 -85 -8 0 -29 -11 -48 -25 -18 -13 -37 -22 -41 -20 -4 3 -10 1 -14 -5 -6
-11 -90 -51 -112 -54 -7 -1 -15 -5 -19 -8 -3 -4 -12 -4 -18 -2 -7 3 -18 -2
-25 -10 -9 -11 -18 -13 -30 -7 -14 8 -17 22 -15 70 1 33 5 64 8 69 3 6 0 13
-6 15 -7 3 1 6 17 6 23 1 26 -2 15 -9 -11 -7 -8 -9 13 -8 15 1 35 10 44 20 12
13 20 15 34 7 11 -5 19 -7 19 -3 0 3 6 1 14 -5 14 -12 46 -5 46 10 0 5 3 8 8
7 4 -1 22 2 40 6 37 9 53 32 41 61 -15 40 -12 46 38 64 1 1 8 -2 17 -5z m141
-71 c5 -19 2 -23 -14 -23 -19 0 -20 5 -12 60 2 9 19 -16 26 -37z m-391 -5 c-8
-40 -35 -71 -56 -63 -14 5 -22 35 -9 33 36 -4 51 4 51 25 0 21 7 37 16 37 2 0
1 -15 -2 -32z m2696 23 c0 -8 54 -6 69 3 4 3 8 -14 9 -37 0 -23 -1 -36 -4 -29
-3 6 -10 10 -15 6 -5 -3 -9 0 -9 5 0 6 -13 11 -28 11 -30 0 -52 16 -52 37 0 7
7 13 15 13 8 0 15 -4 15 -9z m-1517 -83 c-21 -23 -33 -23 -33 0 0 27 20 43 35
29 11 -10 10 -15 -2 -29z m-676 -21 c22 -20 23 -20 43 -2 32 29 159 23 183 -8
7 -8 30 -25 51 -36 37 -19 41 -19 58 -4 10 9 18 22 18 28 0 40 79 -6 95 -54 3
-12 11 -21 16 -21 5 0 9 -7 9 -15 0 -8 5 -15 10 -15 6 0 10 -6 10 -14 0 -12
-28 -13 -162 -10 -201 4 -231 7 -239 18 -4 5 -15 9 -25 10 -25 2 -105 44 -126
67 -22 22 -23 38 -2 67 16 23 25 22 61 -11z m2124 17 c17 -15 17 -18 2 -32
-14 -15 -17 -14 -34 7 -11 13 -19 27 -19 32 0 15 32 10 51 -7z m-881 -49 c-8
-10 -8 -15 2 -21 9 -6 5 -10 -12 -14 -42 -11 -54 9 -24 36 26 25 55 24 34 -1z
m-445 -12 c22 -11 34 -22 30 -31 -2 -7 0 -10 5 -7 6 3 10 2 10 -3 0 -26 133
-43 191 -26 9 2 24 -2 32 -10 13 -13 17 -13 36 0 11 8 21 12 21 8 0 -4 8 0 19
10 14 13 28 15 58 10 35 -5 43 -3 56 17 9 12 14 25 12 29 -2 4 2 7 10 7 8 0
15 -4 15 -9 0 -4 10 -8 23 -8 13 0 34 -12 48 -26 13 -14 31 -23 41 -21 10 3
24 -5 34 -18 10 -14 24 -21 33 -17 9 3 13 1 8 -4 -12 -13 -977 -14 -977 -1 0
6 3 7 7 4 3 -4 16 -1 27 7 13 8 43 12 81 10 67 -3 78 3 106 58 22 43 25 44 74
21z"/>
<path d="M820 1220 c0 -5 -6 -10 -14 -10 -7 0 -16 -15 -19 -32 -4 -18 -9 -43
-13 -55 -4 -14 -2 -23 5 -23 6 0 11 9 11 20 0 13 5 18 15 14 18 -7 20 7 4 23
-15 15 -3 47 15 40 10 -4 12 0 9 14 -6 20 -13 26 -13 9z"/>
<path d="M1930 1212 c0 -8 -9 -27 -21 -43 -19 -27 -19 -29 -2 -29 10 0 33 16
52 35 18 19 37 35 41 35 17 0 -1 -27 -31 -50 -21 -14 -28 -25 -21 -32 14 -14
51 8 62 38 9 23 40 34 40 14 0 -5 -6 -10 -12 -10 -9 0 -9 -3 1 -9 12 -8 12
-12 -2 -26 -9 -9 -22 -15 -29 -13 -7 1 -23 -3 -35 -10 -12 -7 -28 -9 -37 -6
-11 4 -13 0 -9 -18 4 -13 11 -26 16 -29 5 -4 7 -14 4 -24 -5 -11 -14 -15 -29
-10 -18 5 -20 4 -8 -4 13 -9 13 -11 1 -11 -10 0 -12 -3 -5 -10 6 -6 23 -5 47
2 29 9 36 15 31 30 -3 10 -1 18 5 18 5 0 11 -8 14 -17 4 -17 4 -17 10 0 8 21
14 39 16 52 1 6 11 19 21 30 10 11 20 27 21 35 4 18 -10 60 -19 61 -4 0 -16 3
-27 5 -46 11 -95 9 -95 -4z m90 -131 c0 -9 -24 -21 -41 -21 -5 0 -9 7 -9 15 0
9 9 15 25 15 14 0 25 -4 25 -9z"/>
<path d="M2650 1199 c0 -7 -10 -9 -25 -7 -22 5 -25 2 -25 -23 0 -16 2 -29 4
-29 2 0 11 -3 20 -6 12 -5 16 0 16 17 0 12 7 31 17 41 9 11 11 18 5 18 -7 0
-12 -5 -12 -11z"/>
<path d="M846 1185 c-11 -9 -16 -20 -12 -30 6 -17 -34 -65 -54 -65 -5 0 -10
-4 -10 -9 0 -19 54 -4 63 18 6 11 14 21 18 21 5 0 6 6 3 13 -2 7 2 21 10 32
14 19 15 19 22 2 4 -13 -2 -28 -22 -49 -25 -26 -26 -29 -6 -19 35 19 25 -2
-15 -27 -23 -15 -43 -20 -57 -16 -21 6 -21 6 -1 -9 18 -14 24 -13 63 10 41 25
74 24 41 -1 -15 -11 -15 -14 3 -36 11 -14 22 -24 24 -22 2 1 14 2 27 2 18 0
19 -2 7 -10 -8 -5 -10 -10 -5 -11 6 0 1 -4 -10 -9 -15 -7 -16 -9 -4 -9 22 -1
41 23 33 43 -4 11 1 19 16 24 22 8 22 9 -6 19 -16 6 -37 14 -46 17 -21 6 -25
70 -7 82 8 5 6 10 -5 16 -9 5 -13 15 -10 21 4 7 4 9 -1 5 -4 -4 -15 -3 -24 1
-10 6 -23 4 -35 -4z"/>
<path d="M160 1133 c0 -22 2 -25 10 -13 9 13 10 13 11 0 1 -8 1 -19 0 -24 -1
-5 6 -6 15 -2 13 5 15 2 11 -14 -4 -15 0 -20 14 -20 11 0 33 -7 49 -15 17 -9
30 -11 30 -5 0 5 7 10 15 10 16 0 19 17 9 44 -4 10 -18 16 -40 16 -21 0 -38 7
-46 19 -7 10 -28 22 -46 25 -30 7 -32 6 -32 -21z"/>
<path d="M2665 1134 c-19 -14 -19 -15 10 -10 17 2 33 5 38 5 4 1 7 6 7 11 0
15 -32 11 -55 -6z"/>
<path d="M1047 1073 c-10 -9 44 -35 61 -28 11 4 12 8 2 20 -13 15 -51 20 -63
8z"/>
<path d="M1364 1045 c-68 -33 -93 -65 -52 -65 11 0 17 4 14 9 -3 5 2 11 12 15
9 3 31 14 48 25 17 10 45 22 62 26 41 9 51 25 15 25 -15 0 -60 -16 -99 -35z"/>
<path d="M1047 1029 c3 -12 11 -18 19 -15 8 3 18 -3 24 -14 11 -20 4 -50 -12
-50 -6 0 -28 -16 -50 -35 l-39 -36 -30 26 c-31 26 -49 32 -49 16 0 -9 66 -71
76 -71 11 0 69 52 74 66 3 9 10 10 20 4 10 -7 12 -12 4 -17 -6 -5 -10 -25 -9
-45 2 -24 -3 -39 -12 -42 -9 -4 -12 -13 -9 -24 5 -13 -3 -22 -29 -34 -19 -8
-35 -12 -35 -8 0 5 -22 25 -50 45 -40 29 -48 40 -41 53 11 20 3 72 -10 72 -5
0 -9 5 -9 10 0 6 8 10 18 10 16 1 16 1 0 11 -10 5 -18 19 -18 30 0 11 5 17 10
14 6 -4 8 -11 5 -16 -7 -10 8 -13 18 -3 11 11 -34 45 -53 39 -10 -3 -21 -1
-25 5 -3 5 -12 10 -18 10 -7 0 -1 -9 12 -19 l24 -19 -23 -12 c-21 -11 -26 -10
-41 8 -13 17 -19 19 -27 9 -5 -6 -8 -21 -6 -32 6 -37 -7 -85 -25 -85 -14 0
-14 -2 -1 -10 8 -5 11 -10 5 -10 -14 0 17 -20 32 -20 7 0 17 18 23 39 11 42
40 103 40 86 0 -5 5 -2 11 8 12 20 29 23 29 4 0 -8 -11 -20 -25 -27 -24 -13
-32 -26 -40 -69 -3 -15 0 -19 8 -14 7 4 6 0 -2 -10 -11 -14 -11 -17 0 -17 11
0 11 -2 -1 -10 -12 -8 -11 -10 8 -10 12 0 22 -5 22 -11 0 -7 -12 -9 -31 -7
-22 4 -34 -1 -45 -16 -8 -11 -14 -24 -14 -28 0 -14 69 -8 77 6 10 17 63 33 63
18 0 -19 -29 -33 -81 -39 -52 -6 -79 -20 -79 -42 0 -6 -4 -11 -10 -11 -5 0
-10 -5 -10 -11 0 -6 7 -8 16 -5 11 4 18 -1 21 -14 3 -11 9 -20 13 -20 5 0 11
-8 13 -17 3 -12 5 -9 6 8 1 36 47 79 82 79 35 0 41 -10 19 -33 -15 -16 -18
-16 -23 -2 -8 19 -37 20 -37 0 0 -8 9 -19 20 -25 11 -6 18 -16 14 -21 -3 -6
-11 -3 -19 7 -19 27 -45 11 -45 -29 0 -18 -4 -37 -10 -43 -6 -6 -3 -10 11 -11
18 -2 20 2 15 27 -3 16 -1 32 4 35 6 3 10 1 10 -4 0 -6 3 -10 8 -10 21 4 23
-3 7 -21 -16 -17 -16 -20 -2 -20 9 0 19 5 22 11 4 6 13 8 21 5 11 -4 12 -2 1
15 -10 16 -9 21 2 28 8 5 11 16 8 25 -8 19 13 22 32 4 10 -11 12 -10 9 2 -1 8
6 24 17 35 l20 20 10 -30 c14 -42 29 -37 31 10 2 57 2 59 19 45 10 -9 15 -9
15 -1 0 6 5 11 10 11 16 0 12 -18 -10 -40 -29 -29 -25 -48 5 -20 14 13 25 31
25 39 0 9 10 21 22 26 24 10 45 76 24 72 -6 -1 -12 13 -12 31 -2 32 9 42 22
20 4 -6 8 -38 10 -70 1 -33 5 -62 8 -65 3 -4 6 0 7 8 0 8 5 3 10 -10 7 -18 5
-32 -10 -56 -19 -32 -19 -33 1 -27 11 3 21 16 25 33 4 20 12 29 25 29 10 0 17
-4 13 -9 -3 -5 -1 -13 5 -16 14 -9 -6 -35 -26 -35 -8 0 -14 -5 -14 -11 0 -6
-6 -9 -12 -6 -17 6 -53 -13 -41 -22 18 -11 24 -46 11 -64 -12 -15 -13 -14 -14
13 -1 40 -8 45 -33 28 -12 -8 -19 -17 -16 -20 3 -2 -5 -4 -17 -4 -11 1 -23 -5
-26 -13 -3 -10 0 -12 12 -8 14 5 15 3 6 -13 -16 -29 -13 -45 5 -30 12 10 15
10 15 -2 0 -7 -14 -19 -32 -26 -44 -16 -29 -25 30 -17 47 6 50 9 56 41 7 32
26 48 26 22 0 -9 3 -9 9 1 5 8 18 12 31 8 19 -5 21 -3 15 24 -6 25 -4 29 14
29 11 0 27 -10 35 -22 16 -22 16 -22 16 -1 0 15 -9 24 -31 32 -37 13 -44 9
-71 -33 l-19 -31 6 35 c7 35 28 60 51 60 7 0 24 10 37 23 22 20 23 24 11 54
-8 17 -17 34 -22 37 -5 3 -7 29 -4 57 5 50 4 51 -18 39 -24 -13 -34 -7 -44 27
-5 16 -1 27 14 40 19 16 19 18 3 24 -14 5 -10 8 15 13 18 4 32 13 31 19 -3 28
2 36 19 31 13 -5 14 -4 3 4 -13 9 -67 2 -91 -13 -6 -4 -9 -14 -6 -22 7 -17
-16 -43 -39 -43 -10 0 -15 6 -13 18 2 9 9 16 15 15 5 -1 16 9 23 22 7 14 17
25 22 25 4 0 8 5 8 10 0 6 -9 10 -20 10 -11 0 -20 5 -20 11 0 5 -5 7 -11 3 -8
-5 -6 -10 5 -16 9 -5 14 -13 11 -19 -10 -16 -23 -10 -29 14 -3 13 -17 29 -31
35 -34 16 -34 15 -28 -9z m-187 -149 c-9 -17 -14 -18 -30 -8 -10 7 -16 16 -14
20 3 5 10 5 16 2 7 -5 8 -2 3 6 -4 7 -2 16 6 21 19 12 32 -16 19 -41z m101
-110 c5 0 9 -4 9 -9 0 -11 -50 1 -50 12 0 4 0 12 0 18 0 6 7 3 16 -5 8 -9 20
-16 25 -16z m235 19 c3 -6 1 -16 -5 -22 -6 -6 -11 -20 -12 -31 0 -20 0 -20 -9
1 -15 37 7 82 26 52z m-248 -71 c1 -8 -6 -22 -16 -32 -19 -16 -20 -16 -26 9
-4 14 -4 30 -1 35 8 13 40 5 43 -12z m168 -188 c2 -36 -23 -49 -35 -17 -9 24
-5 40 9 32 4 -3 6 5 3 17 -5 19 -3 21 8 10 8 -7 14 -26 15 -42z"/>
<path d="M1440 1035 c-27 -8 -35 -15 -32 -30 2 -18 2 -19 -8 -2 -9 13 -15 15
-30 7 -15 -8 -17 -15 -10 -39 6 -21 4 -35 -6 -48 -24 -32 -15 -37 16 -8 30 29
47 29 36 -1 -4 -9 -12 -14 -21 -10 -18 6 -30 -16 -21 -39 7 -19 33 -9 41 16 4
12 14 18 28 16 17 -1 21 3 19 18 -2 11 -9 23 -15 27 -17 10 -17 49 -1 65 20
20 24 16 24 -27 0 -30 4 -40 16 -40 9 0 18 9 21 20 3 12 11 19 17 17 6 -2 16
5 23 17 10 17 12 18 13 4 0 -9 -13 -27 -29 -40 -16 -14 -34 -34 -40 -45 -6
-12 -30 -32 -53 -45 -35 -19 -42 -28 -40 -48 5 -34 9 -36 30 -16 11 9 25 15
33 13 8 -2 11 -2 8 0 -4 2 -1 17 7 32 11 21 20 28 34 24 11 -3 20 -10 20 -15
0 -6 -8 -8 -18 -6 -12 3 -18 -1 -18 -11 0 -10 9 -17 23 -17 19 -2 23 3 24 30
2 71 6 87 27 108 22 22 22 22 22 1 0 -11 7 -26 15 -33 8 -7 12 -16 10 -21 -3
-4 3 -17 15 -29 11 -11 20 -15 20 -9 0 12 25 39 35 39 4 0 5 -9 2 -20 -3 -11
-1 -23 4 -26 18 -10 -2 -24 -27 -18 -18 5 -24 2 -24 -10 0 -9 -3 -15 -7 -15
-5 1 -11 0 -15 -1 -5 -1 -13 -3 -20 -4 -6 0 -13 -7 -16 -14 -4 -12 0 -12 19
-1 13 7 36 13 51 15 33 2 78 29 78 47 0 7 8 29 19 50 16 32 17 39 4 54 -13 16
-13 16 -3 -4 12 -26 -1 -31 -20 -8 -7 8 -19 15 -27 15 -9 0 -13 6 -10 14 6 16
-19 30 -28 16 -10 -16 -58 -12 -84 7 -19 13 -28 14 -42 5 -29 -18 -47 -14 -51
11 -3 21 -5 22 -38 12z m228 -81 c19 -13 23 -42 3 -30 -4 3 -13 1 -21 -4 -9
-5 -19 -1 -31 13 -16 20 -16 22 -1 29 24 10 25 10 50 -8z"/>
<path d="M733 1033 c-17 -6 -16 -42 3 -73 13 -22 14 -23 9 -3 -3 12 1 36 10
53 16 30 10 36 -22 23z"/>
<path d="M990 1005 c-7 -8 -9 -19 -5 -25 3 -5 1 -10 -6 -10 -7 0 -10 -2 -7 -5
3 -3 18 1 34 10 16 8 23 15 15 15 -11 0 -11 3 3 13 16 12 16 13 -3 14 -11 1
-25 -5 -31 -12z"/>
<path d="M467 967 c-3 -17 -8 -43 -12 -57 -5 -19 -1 -17 14 10 22 38 26 66 12
74 -5 3 -11 -9 -14 -27z"/>
<path d="M1756 985 c7 -17 30 -20 39 -4 5 6 12 4 20 -8 11 -15 16 -16 41 -3
l29 14 -45 7 c-73 12 -90 11 -84 -6z"/>
<path d="M1915 983 c-27 -5 -71 -40 -62 -49 4 -4 16 1 28 12 11 10 33 24 47
31 27 12 23 14 -13 6z"/>
<path d="M2098 972 c-4 -12 -13 -22 -22 -22 -10 0 -14 6 -10 18 5 14 3 14 -10
-2 -24 -29 -20 -35 20 -26 43 10 43 10 34 34 -6 19 -7 19 -12 -2z"/>
<path d="M1000 955 c0 -9 -6 -12 -17 -8 -14 5 -16 3 -6 -7 9 -10 18 -9 45 8
l33 22 -27 0 c-18 0 -28 -5 -28 -15z"/>
<path d="M1256 943 l-26 -22 38 6 c37 6 62 19 62 33 0 16 -50 4 -74 -17z"/>
<path d="M1778 945 c-27 -27 -43 -65 -27 -65 5 0 14 11 19 25 11 30 20 33 15
5 -5 -28 1 -25 18 9 21 42 6 57 -25 26z"/>
<path d="M490 930 c-19 -27 -20 -32 -6 -57 8 -15 15 -22 16 -15 0 6 10 12 21
12 16 0 19 3 11 13 -7 8 -7 18 -2 27 8 12 10 10 10 -7 0 -13 5 -23 11 -23 6 0
8 9 4 20 -4 11 -2 20 4 20 20 0 12 -48 -8 -55 -11 -3 -25 -13 -33 -22 -11 -14
-11 -16 1 -8 10 5 12 4 7 -4 -13 -20 -40 -7 -53 24 -9 23 -12 25 -13 10 -1
-26 -30 38 -30 69 0 17 -4 15 -17 -12 -12 -25 -26 -35 -60 -45 -28 -7 -42 -16
-39 -24 3 -7 1 -15 -4 -18 -13 -8 -13 -55 1 -55 5 0 7 -5 4 -10 -15 -24 -27 5
-23 52 3 29 2 44 -3 36 -7 -10 -9 -10 -10 2 -1 8 -1 18 0 23 2 11 -17 9 -24
-3 -4 -6 -11 -7 -17 -4 -7 5 -8 2 -4 -5 5 -7 15 -10 23 -7 12 5 13 2 7 -11
-25 -57 -8 -213 24 -213 11 0 12 3 3 14 -9 11 -10 20 -1 35 8 16 7 28 -5 50
-8 17 -14 49 -14 73 l2 43 6 -47 c4 -26 10 -50 14 -55 15 -15 33 -10 34 9 2
28 10 33 26 19 8 -6 12 -22 9 -36 -2 -14 0 -25 7 -25 5 0 8 8 5 18 -5 14 -3
14 10 -2 18 -23 20 -36 6 -36 -5 0 -10 -4 -10 -10 0 -5 9 -10 20 -10 11 0 25
-12 33 -27 l15 -27 0 26 c0 15 3 66 7 115 8 94 9 94 41 3 l12 -35 1 39 c1 29
5 37 15 33 8 -3 16 -1 19 6 2 8 5 8 10 0 4 -6 -2 -20 -13 -32 -16 -20 -18 -35
-11 -83 0 -5 6 -8 11 -8 6 0 8 10 4 24 -6 25 10 66 26 66 17 0 11 -39 -7 -49
-10 -5 -14 -13 -10 -17 4 -4 14 1 22 12 8 10 15 14 15 8 0 -6 -9 -19 -20 -29
-11 -10 -20 -23 -20 -29 0 -6 11 1 23 15 13 14 29 23 37 21 11 -4 11 -1 -2 11
-13 13 -18 52 -7 52 1 0 2 14 3 30 1 17 6 37 11 44 6 10 4 12 -5 6 -10 -6 -11
-1 -6 21 4 19 3 24 -3 15 -7 -11 -10 -9 -16 8 -7 24 -40 45 -55 36 -6 -3 -7 1
-4 9 10 27 -14 18 -36 -14z m-42 -108 c4 -41 1 -52 -22 -78 -14 -16 -26 -24
-26 -18 0 6 9 21 20 34 11 13 20 31 20 41 0 10 -9 21 -20 24 -11 3 -20 11 -20
16 0 6 9 5 23 -2 22 -12 22 -12 3 10 -12 13 -14 21 -7 21 7 0 9 5 5 13 -5 9
-4 9 6 0 7 -6 15 -34 18 -61z m-50 8 c13 -16 18 -30 13 -30 -5 0 -11 -6 -13
-14 -2 -10 -12 -6 -38 15 -33 28 -33 29 -15 44 27 20 28 19 53 -15z"/>
<path d="M2005 904 c-11 -9 -39 -24 -61 -34 -62 -27 -64 -40 -7 -41 26 0 59
-2 72 -5 25 -5 81 15 81 29 0 9 -50 -2 -67 -16 -9 -6 -13 -6 -13 1 0 6 5 14
11 17 6 4 8 14 5 22 -4 9 -1 22 5 29 15 19 -1 17 -26 -2z"/>
<path d="M2424 895 c-23 -36 -11 -41 20 -10 30 30 32 35 11 35 -8 0 -22 -11
-31 -25z"/>
<path d="M2505 900 c3 -5 0 -10 -7 -10 -7 0 -18 -8 -25 -18 -7 -12 -24 -19
-48 -20 -51 -2 -58 -12 -9 -13 39 -1 60 -3 100 -13 17 -5 23 -1 26 19 3 14 -1
30 -8 36 -8 6 -11 15 -8 20 3 5 -2 9 -11 9 -9 0 -13 -4 -10 -10z"/>
<path d="M2230 885 c8 -9 22 -14 32 -12 15 4 17 0 15 -26 -2 -27 3 -34 38 -53
22 -12 48 -23 58 -23 9 -1 17 -5 17 -11 0 -5 7 -10 16 -10 12 0 14 9 12 37 -3
35 -6 38 -43 46 -22 5 -55 20 -72 34 -18 13 -33 22 -33 19 0 -3 -12 -1 -26 5
-24 9 -26 8 -14 -6z"/>
<path d="M1240 869 c0 -35 13 -60 28 -54 12 4 13 3 2 -10 -10 -12 -10 -15 3
-15 19 0 37 29 37 59 0 14 -6 21 -19 21 -11 0 -26 3 -35 6 -10 4 -16 1 -16 -7z"/>
<path d="M970 831 c0 -22 13 -39 25 -35 7 3 16 1 20 -5 3 -6 1 -11 -6 -11 -7
0 -10 -2 -7 -5 3 -3 12 -3 20 0 12 5 9 12 -14 36 -31 31 -38 34 -38 20z"/>
<path d="M1349 835 c-1 -3 -2 -9 -3 -14 -2 -19 -16 -23 -16 -5 -1 13 -6 8 -15
-15 -25 -55 -17 -63 23 -23 21 20 34 39 30 40 -5 2 -6 8 -2 13 3 5 0 9 -5 9
-6 0 -12 -2 -12 -5z"/>
<path d="M712 825 c4 -4 0 -21 -8 -38 -15 -28 -15 -29 1 -24 13 6 15 3 10 -13
-10 -33 2 -23 22 19 l20 39 -26 12 c-14 7 -23 9 -19 5z"/>
<path d="M1865 800 c-10 -11 -22 -17 -26 -14 -5 3 -9 1 -9 -5 0 -5 9 -9 19 -8
11 0 17 5 14 11 -4 5 3 7 14 4 14 -4 20 -1 19 8 -4 23 -12 25 -31 4z"/>
<path d="M1464 795 c-28 -7 -57 -15 -63 -19 -14 -9 -15 -46 0 -46 5 0 7 5 4
10 -3 6 -1 10 4 10 6 0 11 7 11 15 0 8 5 15 10 15 6 0 10 -5 10 -10 0 -7 6 -7
19 0 11 5 28 10 39 10 10 0 19 7 19 15 0 8 -1 15 -1 14 -1 -1 -24 -7 -52 -14z"/>
<path d="M2447 802 c-29 -6 -14 -26 21 -28 36 -2 52 22 19 28 -12 2 -30 2 -40
0z"/>
<path d="M475 725 c3 -38 9 -92 13 -119 l7 -49 18 54 18 54 -31 65 -31 65 6
-70z"/>
<path d="M114 759 c26 -38 21 -59 -15 -59 -27 0 -30 -2 -19 -15 18 -21 47 -19
60 5 6 11 15 18 21 15 5 -4 9 -2 9 4 0 5 -6 14 -14 18 -8 4 -15 17 -18 28 -2
11 -12 21 -22 23 -17 4 -18 3 -2 -19z"/>
<path d="M1262 758 c7 -13 11 -27 10 -31 -1 -5 1 -6 6 -3 4 2 13 -4 20 -15 7
-10 8 -19 3 -19 -5 0 -12 -16 -15 -35 -4 -19 -14 -38 -22 -43 -15 -8 -15 -10
-1 -15 10 -4 25 6 41 28 30 39 32 45 10 45 -8 0 -12 5 -9 10 3 6 21 10 39 10
22 0 33 5 33 15 0 10 -5 12 -16 6 -10 -6 -20 -4 -29 7 -13 16 -13 16 -8 0 3
-10 2 -18 -3 -18 -14 0 -43 51 -37 66 4 9 -1 14 -15 14 -17 0 -18 -3 -7 -22z"/>
<path d="M2590 771 c-36 -3 -60 -9 -54 -13 10 -7 143 8 153 17 2 3 -4 4 -15 3
-10 -1 -48 -4 -84 -7z"/>
<path d="M1470 751 c0 -6 11 -16 24 -22 13 -6 30 -22 37 -35 7 -14 17 -21 23
-16 6 4 31 3 56 -4 25 -7 41 -13 37 -13 -5 -1 -1 -8 7 -17 18 -17 21 -44 6
-44 -5 0 -10 5 -10 11 0 5 -4 8 -9 4 -5 -3 -17 2 -25 11 -9 8 -16 13 -16 10 0
-2 -14 -1 -31 4 -34 10 -60 3 -39 -10 19 -12 1 -32 -24 -28 -12 2 -29 -3 -39
-13 -18 -16 -17 -17 10 -27 l28 -10 -26 -1 c-32 -1 -89 -29 -89 -43 0 -6 7 -7
18 -3 9 5 36 13 60 19 23 7 50 22 58 35 33 46 114 60 114 20 0 -23 9 -24 40
-2 22 16 23 16 17 0 -8 -22 2 -22 19 1 10 14 10 20 -2 33 -8 9 -16 26 -17 37
0 12 -3 19 -6 17 -2 -3 -10 4 -18 15 -8 11 -22 20 -31 20 -9 0 -24 5 -32 11
-11 8 -6 9 20 5 28 -5 31 -4 17 5 -10 6 -27 9 -38 6 -11 -3 -32 1 -47 8 -41
20 -92 29 -92 16z"/>
<path d="M2478 746 c-21 -5 -38 -12 -38 -16 0 -9 69 1 76 12 9 14 3 15 -38 4z"/>
<path d="M676 731 c-17 -19 -17 -22 10 -69 26 -46 51 -60 51 -28 0 8 -6 12
-14 9 -7 -3 -15 3 -19 13 -3 11 -10 27 -15 36 -12 24 -12 48 1 28 8 -12 10
-11 10 8 0 27 -2 27 -24 3z"/>
<path d="M1066 684 c-52 -60 -69 -94 -47 -94 5 0 11 6 14 14 4 9 14 12 26 9
29 -7 53 15 46 41 -5 17 -4 18 4 6 6 -8 11 -10 12 -5 3 17 5 95 3 95 -2 0 -28
-30 -58 -66z"/>
<path d="M1459 710 c-3 -21 -14 -28 -61 -43 -32 -10 -58 -22 -58 -27 0 -5 -14
-25 -31 -45 -23 -26 -29 -39 -21 -47 7 -7 7 -19 2 -34 -11 -29 3 -31 55 -10
34 15 52 45 19 32 -9 -4 -22 -1 -30 4 -17 15 6 84 28 88 22 4 18 -31 -4 -40
-11 -4 -15 -13 -12 -23 6 -14 8 -14 19 2 12 15 13 15 19 -5 8 -25 26 -30 26
-7 0 19 52 115 63 115 5 0 5 -9 2 -20 -4 -11 -2 -20 4 -20 14 0 13 26 -3 70
-13 33 -14 34 -17 10z"/>
<path d="M569 673 c-30 -32 -64 -113 -48 -113 5 0 21 -12 34 -26 27 -29 38
-26 61 19 9 18 22 36 28 40 6 4 -1 5 -15 2 -34 -8 -51 12 -40 51 5 16 14 28
21 26 14 -3 9 20 -6 25 -6 2 -21 -9 -35 -24z"/>
<path d="M145 670 c-3 -5 -18 -10 -32 -10 -42 0 -23 -7 40 -14 56 -6 57 -6 47
14 -11 21 -44 27 -55 10z"/>
<path d="M2806 658 c-8 -13 -17 -36 -20 -52 -5 -29 -16 -48 -16 -28 0 7 -7 12
-15 12 -12 0 -13 -4 -3 -25 l11 -25 18 26 c12 18 18 22 22 12 3 -7 6 4 6 25 1
26 5 37 16 37 17 0 20 -25 5 -35 -6 -4 -8 -11 -4 -16 9 -15 31 7 37 36 2 14 1
25 -4 25 -4 0 -14 7 -23 15 -14 14 -17 13 -30 -7z"/>
<path d="M461 639 c0 -14 -12 -36 -26 -49 -27 -25 -34 -60 -11 -60 7 0 19 -7
26 -15 22 -26 28 -4 20 75 -4 41 -8 63 -9 49z"/>
<path d="M630 652 c0 -7 -4 -11 -9 -7 -5 3 -12 1 -16 -4 -3 -6 3 -15 14 -20
22 -12 35 7 20 30 -7 11 -9 11 -9 1z"/>
<path d="M370 633 c0 -16 -2 -16 -11 -3 -8 12 -9 9 -5 -12 3 -14 9 -34 13 -44
4 -11 3 -15 -5 -11 -6 4 -13 21 -17 37 -4 17 -11 30 -16 30 -13 0 -11 -12 10
-46 22 -36 56 -43 46 -10 -12 40 -10 51 9 51 11 0 21 6 24 13 2 7 -6 12 -22
12 -18 0 -26 -5 -26 -17z"/>
<path d="M1977 636 c-6 -15 1 -26 15 -26 4 0 8 7 8 16 0 11 6 15 20 11 11 -3
20 -1 20 4 0 15 -57 10 -63 -5z"/>
<path d="M925 600 c-7 -12 41 -44 55 -35 5 3 10 15 10 26 0 14 -7 19 -29 19
-17 0 -32 -4 -36 -10z"/>
<path d="M1948 593 c-9 -33 1 -44 25 -31 12 7 28 13 36 14 26 5 30 20 5 22
-14 1 -27 -4 -30 -13 -4 -8 -13 -15 -22 -15 -13 0 -12 3 3 20 15 17 16 20 3
20 -9 0 -18 -8 -20 -17z"/>
<path d="M730 590 c-8 -5 -29 -10 -46 -10 -20 0 -34 -6 -38 -16 -9 -23 -7 -28
7 -16 6 5 38 13 70 17 38 5 57 12 57 21 0 16 -28 18 -50 4z"/>
<path d="M2402 588 c-27 -33 47 -64 88 -38 11 7 11 10 2 10 -7 0 -11 4 -7 9 7
12 -12 24 -26 16 -6 -5 -4 -12 8 -21 10 -7 14 -13 8 -14 -18 0 -36 17 -33 30
4 18 -26 24 -40 8z"/>
<path d="M1020 570 c-13 -11 -29 -20 -37 -20 -8 0 -13 -11 -13 -29 0 -34 -24
-60 -33 -37 -4 9 1 20 11 25 13 7 14 13 6 21 -9 9 -18 3 -38 -26 -14 -21 -26
-44 -26 -52 0 -18 52 -4 70 19 96 125 103 136 60 99z"/>
<path d="M2808 559 c-31 -12 -44 -37 -23 -45 19 -8 65 22 65 41 0 17 -4 17
-42 4z"/>
<path d="M720 550 c-12 -9 -9 -15 20 -40 42 -36 48 -36 60 -7 5 14 9 16 10 7
1 -8 5 -4 9 10 5 20 8 22 13 9 9 -24 -19 -59 -48 -59 -15 0 -39 15 -64 40
l-39 39 -30 -17 c-60 -34 -60 -100 -1 -115 63 -15 73 -14 80 12 6 28 36 37 44
14 4 -11 2 -13 -9 -10 -8 4 -17 2 -20 -4 -4 -5 -3 -9 2 -8 29 5 33 -4 8 -16
-25 -11 -27 -14 -9 -14 38 -2 113 48 134 88 10 21 26 43 34 50 9 7 13 17 10
22 -7 13 -34 11 -34 -2 0 -5 6 -7 13 -3 6 4 3 -2 -7 -14 -24 -27 -46 -28 -46
-2 0 22 -12 25 -41 9 -16 -8 -26 -7 -44 5 -28 19 -26 18 -45 6z m-15 -55 c12
0 20 -44 8 -46 -36 -6 -53 -5 -53 3 0 5 -4 6 -10 3 -5 -3 -10 1 -10 11 0 20
31 45 45 36 5 -4 15 -7 20 -7z"/>
<path d="M1558 543 c-13 -19 -24 -23 -70 -29 -14 -2 -42 -12 -61 -23 -19 -11
-60 -22 -91 -26 l-57 -7 33 -29 c44 -38 69 -37 88 4 9 19 24 33 37 35 14 2 20
8 16 18 -3 8 0 14 6 14 6 0 11 -4 11 -9 0 -5 8 -11 17 -13 19 -3 29 -68 11
-68 -6 0 -6 -5 1 -14 16 -19 -29 -27 -76 -14 -47 13 -65 -4 -29 -27 46 -30
130 1 138 52 3 15 8 35 12 44 5 11 -1 19 -19 27 -14 7 -23 17 -20 22 10 16 41
11 59 -9 20 -22 54 -33 62 -20 3 5 9 7 14 4 5 -3 1 14 -10 37 -21 48 -50 60
-72 31z"/>
<path d="M1014 522 c-14 -9 -37 -52 -31 -59 10 -9 46 22 50 44 4 24 0 28 -19
15z"/>
<path d="M1962 523 c-28 -4 -32 -7 -26 -26 9 -32 33 -67 49 -73 24 -9 135 57
135 79 0 6 -7 2 -15 -9 -13 -16 -14 -16 -9 -1 5 13 1 17 -15 17 -12 0 -21 -5
-21 -12 0 -9 -3 -9 -12 0 -15 15 -32 16 -23 2 9 -15 -11 -12 -24 4 -10 11 -8
15 6 19 21 6 1 5 -45 0z"/>
<path d="M2764 499 c-3 -6 0 -15 7 -20 22 -14 49 -10 49 6 0 8 -4 15 -10 15
-5 0 -10 -4 -10 -10 0 -5 -5 -10 -11 -10 -5 0 -8 4 -4 9 3 5 1 12 -4 15 -5 4
-13 1 -17 -5z"/>
<path d="M1147 493 c-12 -11 -7 -23 7 -17 8 3 17 0 21 -6 6 -9 10 -9 16 1 5 8
9 17 9 22 0 9 -44 9 -53 0z"/>
<path d="M1859 478 c0 -2 -2 -18 -5 -37 -4 -32 -3 -33 23 -26 29 7 53 23 53
34 0 11 -68 38 -71 29z"/>
<path d="M1470 460 c0 -5 -7 -7 -15 -4 -17 7 -58 -33 -52 -50 7 -20 32 -12 29
9 -2 19 -2 19 11 2 14 -16 15 -16 31 7 18 29 21 46 6 46 -5 0 -10 -4 -10 -10z"/>
<path d="M2073 440 c-38 -23 -42 -30 -13 -23 12 3 20 0 20 -7 0 -9 -13 -11
-50 -7 -28 3 -56 10 -63 14 -20 13 -36 12 -31 -2 7 -17 -47 -35 -102 -35 -50
0 -68 -17 -27 -25 15 -4 38 -11 51 -16 35 -14 52 -11 52 9 0 11 3 13 8 6 5 -8
21 -5 56 12 27 13 52 21 57 18 4 -2 20 -2 34 2 21 5 25 11 21 27 -3 13 2 25
12 33 26 20 11 16 -25 -6z"/>
<path d="M933 435 c-23 -5 -44 -13 -48 -17 -6 -5 124 -32 150 -30 44 2 77 12
103 30 16 12 32 19 36 17 3 -3 2 0 -4 7 -7 9 -25 9 -73 0 -35 -7 -76 -8 -92
-4 -17 4 -48 3 -72 -3z"/>
<path d="M2564 439 c-4 -8 3 -9 24 -4 26 5 30 4 26 -12 -6 -23 -52 -29 -60 -8
-7 18 -40 20 -50 4 -4 -7 -24 -9 -49 -7 l-42 5 10 -28 c9 -22 19 -28 54 -34
23 -3 45 -10 48 -16 4 -5 31 -9 61 -9 48 0 56 3 63 23 5 12 6 27 4 34 -6 16
16 55 27 48 5 -3 11 -1 15 5 4 6 -17 10 -59 10 -37 0 -68 -5 -72 -11z m-8 -50
c3 -5 13 -5 24 1 13 7 21 7 25 0 4 -6 11 -8 16 -5 5 4 9 -1 9 -10 0 -9 -4 -14
-9 -10 -5 3 -12 1 -16 -5 -10 -15 -47 -12 -87 8 -30 16 -33 20 -19 29 17 11
48 6 57 -8z"/>
<path d="M1163 406 c-23 -17 -41 -35 -39 -40 4 -16 26 -19 26 -4 0 8 11 14 27
13 20 0 28 6 34 27 10 39 0 40 -48 4z"/>
<path d="M2374 408 c-4 -7 -3 -8 4 -4 25 15 10 -11 -17 -32 -18 -13 -37 -19
-48 -16 -16 6 -16 5 2 -14 11 -12 36 -25 55 -28 l35 -7 -22 25 c-27 29 -30 46
-5 27 9 -7 14 -10 10 -5 -9 11 14 35 27 28 6 -3 1 4 -9 16 -22 26 -23 26 -32
10z"/>
<path d="M2273 403 c-13 -2 -23 -9 -23 -14 0 -5 -5 -9 -11 -9 -5 0 -7 5 -3 11
5 9 -1 10 -22 5 -16 -4 -35 -7 -41 -8 -7 -1 -13 -5 -13 -10 0 -5 9 -6 21 -3
30 10 69 -2 63 -19 -3 -8 2 -16 13 -19 16 -4 15 -6 -4 -12 -13 -4 -20 -12 -16
-19 4 -6 -1 -5 -10 3 -9 7 -14 17 -11 22 3 5 2 9 -3 8 -4 -1 -17 0 -28 1 -16
1 -15 4 10 15 17 8 23 14 15 14 -8 1 -22 -3 -30 -9 -9 -6 -20 -5 -30 3 -13 11
-13 10 -1 -6 8 -10 14 -31 13 -47 0 -16 2 -29 6 -29 4 1 9 0 12 -1 12 -6 58
-5 55 1 -6 8 43 34 51 27 10 -11 -30 -48 -53 -48 -12 0 -24 -4 -27 -9 -11 -18
22 -19 67 -3 36 13 49 14 58 5 10 -10 6 -15 -15 -23 -15 -5 -32 -8 -37 -4 -12
7 -51 -5 -45 -15 10 -15 95 -5 115 13 19 18 21 17 53 -2 40 -25 69 -23 83 5 6
11 16 18 23 15 9 -3 12 3 10 14 -2 12 3 19 14 19 9 0 20 4 24 8 7 6 -20 9 -91
9 -39 0 -40 -1 -17 -22 25 -24 29 -50 7 -50 -8 0 -15 9 -15 19 0 14 -5 18 -20
14 -12 -3 -20 0 -20 7 0 9 -4 9 -17 -1 -15 -12 -16 -12 -10 4 4 11 2 17 -8 17
-23 0 -64 22 -70 38 -7 19 5 82 15 82 5 0 11 -8 13 -17 4 -14 5 -12 6 5 1 22
-7 25 -56 15z"/>
<path d="M1700 385 c-14 -8 -42 -14 -62 -15 -21 0 -38 -4 -38 -8 0 -11 79 1
108 17 12 6 22 14 22 16 0 7 -2 6 -30 -10z"/>
<path d="M1728 379 c-10 -10 -30 -21 -45 -24 -40 -8 -76 -28 -81 -44 -11 -32
130 33 142 66 9 22 4 23 -16 2z"/>
<path d="M2111 381 c-11 -7 -11 -9 0 -14 8 -3 3 -6 -11 -6 -26 -1 -70 -26 -70
-39 0 -4 9 -8 20 -9 11 -1 20 3 20 8 0 6 12 8 28 5 25 -6 27 -4 27 29 0 19 0
35 0 35 0 0 -6 -4 -14 -9z"/>
<path d="M1072 351 c-10 -6 -9 -13 6 -31 19 -24 20 -24 47 -6 l28 19 -24 13
c-28 16 -39 17 -57 5z"/>
<path d="M1475 337 l-50 -18 48 4 c50 5 62 10 56 24 -2 4 -26 0 -54 -10z"/>
<path d="M1560 350 c12 -8 12 -10 -5 -10 -18 -1 -19 -1 -2 -11 9 -5 21 -8 26
-5 4 3 7 -7 5 -22 -4 -26 -4 -26 6 3 8 24 7 32 -7 43 -9 6 -22 12 -27 12 -6 0
-4 -5 4 -10z"/>
<path d="M1177 320 c-4 -17 -13 -30 -21 -30 -8 0 -17 -4 -20 -9 -4 -5 9 -6 28
-1 41 9 58 19 51 30 -3 4 2 10 10 14 8 3 15 11 15 17 0 8 -4 8 -15 -1 -11 -9
-18 -10 -29 -1 -11 9 -15 5 -19 -19z"/>
<path d="M1939 334 l-24 -13 23 -1 c12 0 22 6 22 13 0 9 3 8 9 -2 7 -10 13
-11 27 -2 11 6 17 11 14 12 -22 7 -51 4 -71 -7z"/>
<path d="M2424 336 c-9 -10 -5 -13 20 -14 17 -1 38 3 46 8 12 8 11 10 -7 10
-12 0 -27 2 -35 5 -7 2 -18 -2 -24 -9z"/>
<path d="M494 284 c-12 -26 -19 -32 -25 -22 -7 11 -9 11 -9 0 0 -17 -25 -42
-40 -42 -7 0 -10 7 -7 15 5 12 1 12 -28 -2 -31 -15 -55 -53 -34 -53 5 0 9 7 9
15 0 19 36 39 45 25 9 -15 -14 -41 -29 -33 -6 3 -8 3 -4 -2 4 -4 2 -15 -5 -24
-11 -14 -10 -15 8 -1 11 8 27 24 36 34 16 20 16 19 28 -2 7 -12 9 -28 5 -35
-4 -6 2 -3 14 7 23 20 29 32 11 20 -6 -3 -15 0 -20 7 -14 23 -10 32 9 18 15
-12 16 -12 4 2 -10 14 -8 19 14 34 26 17 27 17 20 -1 -5 -12 -4 -15 2 -9 9 10
24 85 17 85 -2 0 -12 -16 -21 -36z"/>
<path d="M1490 311 l-25 -7 25 -7 c38 -10 50 -8 50 8 0 16 -10 17 -50 6z"/>
<path d="M1980 310 l-24 -6 24 -17 c26 -18 48 -9 34 15 -6 9 -18 12 -34 8z"/>
<path d="M2630 304 c14 -7 21 -13 15 -14 -5 0 4 -12 20 -27 22 -21 40 -28 74
-29 25 -1 47 -7 49 -13 2 -6 17 -11 32 -11 l29 0 -22 23 c-17 16 -31 21 -58
19 -45 -5 -79 12 -79 39 0 16 -4 19 -21 14 -12 -4 -19 -3 -16 1 3 5 -7 10 -21
11 l-27 1 25 -14z"/>
<path d="M2070 285 c0 -29 2 -30 41 -10 35 19 30 35 -12 35 -24 0 -29 -4 -29
-25z"/>
<path d="M1625 286 c-35 -16 -65 -56 -37 -50 9 2 43 8 75 14 57 11 58 12 41
31 -20 22 -38 23 -79 5z"/>
<path d="M2570 271 c0 -11 -6 -21 -12 -24 -7 -2 -10 -8 -6 -12 4 -4 14 0 23 9
23 22 38 20 69 -9 15 -14 28 -25 29 -25 43 -8 76 -9 80 -3 3 5 -10 10 -30 10
-27 1 -43 10 -69 37 -38 41 -84 50 -84 17z"/>
<path d="M1190 266 c0 -19 41 -28 90 -20 28 5 40 3 40 -5 0 -7 5 -9 11 -5 14
9 -8 30 -41 39 -19 5 -21 4 -10 -4 12 -9 10 -11 -12 -11 -15 0 -30 5 -33 10
-9 15 -45 12 -45 -4z"/>
<path d="M2150 222 c0 -4 6 -14 13 -23 9 -12 18 -14 36 -7 13 4 22 10 20 12
-11 9 -69 24 -69 18z"/>
<path d="M1246 1175 c4 -8 1 -15 -6 -15 -9 0 -8 -6 4 -19 23 -26 51 -20 51 10
0 17 -5 23 -17 21 -10 -2 -18 2 -18 8 0 5 -4 10 -10 10 -5 0 -7 -7 -4 -15z"/>
<path d="M2852 1148 c-7 -7 -12 -23 -12 -36 0 -38 34 -24 38 16 3 33 -6 40
-26 20z"/>
<path d="M21 73 l0 -28 11 25 11 25 7 -25 c5 -14 8 -20 9 -13 1 6 4 18 7 27 5
12 0 16 -20 16 -22 0 -26 -4 -25 -27z"/>
<path d="M107 93 c-13 -12 -7 -43 8 -43 9 0 15 9 15 25 0 24 -10 32 -23 18z"/>
<path d="M960 73 c0 -26 1 -26 15 -7 15 19 15 19 30 0 12 -16 15 -16 15 -5 0
9 -11 21 -25 27 -35 16 -35 16 -35 -15z"/>
<path d="M1110 93 c12 -6 13 -33 1 -33 -5 0 -12 6 -14 13 -4 8 -6 8 -6 -2 -1
-11 -5 -10 -16 5 -8 10 -15 14 -15 8 0 -16 21 -30 45 -30 22 1 29 38 7 42 -7
1 -8 0 -2 -3z"/>
<path d="M1325 92 c-9 -9 -5 -42 5 -42 6 0 10 9 10 20 0 23 27 17 33 -8 3 -12
5 -9 6 6 1 15 5 21 13 16 6 -4 8 -3 4 4 -6 11 -61 14 -71 4z"/>
<path d="M1762 72 c4 -29 2 -31 -31 -35 -32 -3 -31 -4 10 -5 46 -2 46 -2 45
30 -1 17 -7 33 -15 36 -10 3 -13 -3 -9 -26z"/>
<path d="M2791 75 c0 -16 3 -24 6 -16 5 11 7 11 14 0 6 -10 8 -5 8 16 0 17 -3
24 -6 16 -5 -11 -7 -11 -14 0 -6 10 -8 5 -8 -16z"/>
<path d="M168 33 c18 -2 45 -2 60 0 15 2 0 4 -33 4 -33 0 -45 -2 -27 -4z"/>
<path d="M838 33 c117 -2 306 -2 420 0 114 1 18 2 -213 2 -231 0 -324 -1 -207
-2z"/>
<path d="M1848 33 c29 -2 74 -2 100 0 26 2 2 3 -53 3 -55 0 -76 -1 -47 -3z"/>
<path d="M2048 33 c28 -2 76 -2 105 0 28 2 5 3 -53 3 -58 0 -81 -1 -52 -3z"/>
</g>
</svg>
